<svg width="24" height="24" viewBox="0 0 24 24" fill="none" xmlns="http://www.w3.org/2000/svg">
<path d="M1.43996 4.31999C1.37636 4.31909 1.31321 4.33085 1.25418 4.35456C1.19516 4.37828 1.14143 4.4135 1.09614 4.45816C1.05084 4.50282 1.01487 4.55604 0.990319 4.61472C0.965768 4.6734 0.953125 4.73638 0.953125 4.79999C0.953125 4.86361 0.965768 4.92658 0.990319 4.98527C1.01487 5.04395 1.05084 5.09717 1.09614 5.14183C1.14143 5.18649 1.19516 5.22171 1.25418 5.24542C1.31321 5.26914 1.37636 5.28089 1.43996 5.27999H22.56C22.6236 5.28089 22.6867 5.26914 22.7457 5.24542C22.8048 5.22171 22.8585 5.18649 22.9038 5.14183C22.9491 5.09717 22.9851 5.04395 23.0096 4.98527C23.0342 4.92658 23.0468 4.86361 23.0468 4.79999C23.0468 4.73638 23.0342 4.6734 23.0096 4.61472C22.9851 4.55604 22.9491 4.50282 22.9038 4.45816C22.8585 4.4135 22.8048 4.37828 22.7457 4.35456C22.6867 4.33085 22.6236 4.31909 22.56 4.31999H1.43996ZM1.43996 11.52C1.37636 11.5191 1.31321 11.5308 1.25418 11.5546C1.19516 11.5783 1.14143 11.6135 1.09614 11.6582C1.05084 11.7028 1.01487 11.756 0.990319 11.8147C0.965768 11.8734 0.953125 11.9364 0.953125 12C0.953125 12.0636 0.965768 12.1266 0.990319 12.1853C1.01487 12.244 1.05084 12.2972 1.09614 12.3418C1.14143 12.3865 1.19516 12.4217 1.25418 12.4454C1.31321 12.4691 1.37636 12.4809 1.43996 12.48H22.56C22.6236 12.4809 22.6867 12.4691 22.7457 12.4454C22.8048 12.4217 22.8585 12.3865 22.9038 12.3418C22.9491 12.2972 22.9851 12.244 23.0096 12.1853C23.0342 12.1266 23.0468 12.0636 23.0468 12C23.0468 11.9364 23.0342 11.8734 23.0096 11.8147C22.9851 11.756 22.9491 11.7028 22.9038 11.6582C22.8585 11.6135 22.8048 11.5783 22.7457 11.5546C22.6867 11.5308 22.6236 11.5191 22.56 11.52H1.43996ZM1.43996 18.72C1.37636 18.7191 1.31321 18.7308 1.25418 18.7546C1.19516 18.7783 1.14143 18.8135 1.09614 18.8582C1.05084 18.9028 1.01487 18.956 0.990319 19.0147C0.965768 19.0734 0.953125 19.1364 0.953125 19.2C0.953125 19.2636 0.965768 19.3266 0.990319 19.3853C1.01487 19.444 1.05084 19.4972 1.09614 19.5418C1.14143 19.5865 1.19516 19.6217 1.25418 19.6454C1.31321 19.6691 1.37636 19.6809 1.43996 19.68H22.56C22.6236 19.6809 22.6867 19.6691 22.7457 19.6454C22.8048 19.6217 22.8585 19.5865 22.9038 19.5418C22.9491 19.4972 22.9851 19.444 23.0096 19.3853C23.0342 19.3266 23.0468 19.2636 23.0468 19.2C23.0468 19.1364 23.0342 19.0734 23.0096 19.0147C22.9851 18.956 22.9491 18.9028 22.9038 18.8582C22.8585 18.8135 22.8048 18.7783 22.7457 18.7546C22.6867 18.7308 22.6236 18.7191 22.56 18.72H1.43996Z" fill="white"/>
</svg>
