<svg width="32" height="32" viewBox="0 0 32 32" fill="none" xmlns="http://www.w3.org/2000/svg">
<path d="M16 2.66675C9.75063 2.66675 4.66663 7.75075 4.66663 14.0001C4.66663 16.6907 5.63263 19.3021 7.39529 21.3654C7.59663 21.5941 12.3466 26.9914 13.9333 28.5041C14.5126 29.0567 15.256 29.3334 16 29.3334C16.744 29.3334 17.4873 29.0567 18.0673 28.5041C19.912 26.7447 24.4166 21.5807 24.614 21.3541C26.3673 19.3021 27.3333 16.6907 27.3333 14.0001C27.3333 7.75075 22.2493 2.66675 16 2.66675ZM16 17.3334C14.1593 17.3334 12.6666 15.8407 12.6666 14.0001C12.6666 12.1594 14.1593 10.6667 16 10.6667C17.8406 10.6667 19.3333 12.1594 19.3333 14.0001C19.3333 15.8407 17.8406 17.3334 16 17.3334Z" fill="white"/>
</svg>
