<svg width="32" height="32" viewBox="0 0 32 32" fill="none" xmlns="http://www.w3.org/2000/svg">
<path d="M28 9.33333V8.33333C28 5.944 26.056 4 23.6667 4H8.33333C5.944 4 4 5.944 4 8.33333V9.33333H28ZM4 11.3333V23.6667C4 26.056 5.944 28 8.33333 28H23.6667C26.056 28 28 26.056 28 23.6667V11.3333H4ZM10.3333 24C9.41267 24 8.66667 23.254 8.66667 22.3333C8.66667 21.4127 9.41267 20.6667 10.3333 20.6667C11.254 20.6667 12 21.4127 12 22.3333C12 23.254 11.254 24 10.3333 24ZM10.3333 18C9.41267 18 8.66667 17.254 8.66667 16.3333C8.66667 15.4127 9.41267 14.6667 10.3333 14.6667C11.254 14.6667 12 15.4127 12 16.3333C12 17.254 11.254 18 10.3333 18ZM16 24C15.0793 24 14.3333 23.254 14.3333 22.3333C14.3333 21.4127 15.0793 20.6667 16 20.6667C16.9207 20.6667 17.6667 21.4127 17.6667 22.3333C17.6667 23.254 16.9207 24 16 24ZM16 18C15.0793 18 14.3333 17.254 14.3333 16.3333C14.3333 15.4127 15.0793 14.6667 16 14.6667C16.9207 14.6667 17.6667 15.4127 17.6667 16.3333C17.6667 17.254 16.9207 18 16 18ZM21.6667 18C20.746 18 20 17.254 20 16.3333C20 15.4127 20.746 14.6667 21.6667 14.6667C22.5873 14.6667 23.3333 15.4127 23.3333 16.3333C23.3333 17.254 22.5873 18 21.6667 18Z" fill="white"/>
</svg>
