<svg width="187" height="50" viewBox="0 0 187 50" fill="none" xmlns="http://www.w3.org/2000/svg">
<path d="M74.0901 19.0989H76.622V30.7948H74.0901V29.1104C73.1283 30.444 71.7685 31.0989 69.9869 31.0989C68.369 31.0989 67.0089 30.5141 65.86 29.3211C64.711 28.1281 64.1484 26.6545 64.1484 24.9471C64.1484 23.2158 64.711 21.7657 65.86 20.5726C67.0089 19.3795 68.369 18.7949 69.9869 18.7949C71.7685 18.7949 73.1283 19.4498 74.0901 20.7599V19.0989ZM70.3855 28.6897C71.4405 28.6897 72.331 28.3389 73.035 27.6368C73.7384 26.9117 74.0901 26.023 74.0901 24.9471C74.0901 23.8708 73.7384 22.9821 73.035 22.2803C72.331 21.5552 71.4405 21.2043 70.3855 21.2043C69.3298 21.2043 68.439 21.5552 67.7356 22.2803C67.0323 22.9821 66.6806 23.8708 66.6806 24.9471C66.6806 26.023 67.0323 26.9117 67.7356 27.6368C68.439 28.3389 69.3298 28.6897 70.3855 28.6897Z" fill="white"/>
<path d="M83.8449 23.8476C85.6503 24.2453 87.995 24.9939 87.9481 27.4967C87.9481 28.6194 87.5025 29.5081 86.6351 30.1399C85.7678 30.7713 84.6891 31.0989 83.3761 31.0989C81.0545 31.0989 79.3431 30.0697 78.5928 28.3618L80.7736 27.0989C81.1722 28.2218 82.0396 28.783 83.3761 28.783C84.7122 28.783 85.3692 28.3389 85.3692 27.4732C85.3692 26.7247 84.3843 26.2802 83.1414 25.9762C81.383 25.5316 79.0147 24.83 79.0615 22.3736C79.0615 21.2977 79.4601 20.4325 80.2811 19.7772C81.1015 19.1224 82.1333 18.7949 83.3524 18.7949C85.2986 18.7949 86.8698 19.7074 87.6903 21.2277L85.5564 22.4206C85.1577 21.5318 84.4075 21.0874 83.3524 21.0874C82.3913 21.0874 81.641 21.5085 81.641 22.3272C81.641 23.0991 82.6258 23.4968 83.8449 23.8476Z" fill="white"/>
<path d="M96.6114 21.5298H93.7041V27.1438C93.7041 28.641 94.689 28.6175 96.6114 28.5239V30.7929C92.7429 31.2609 91.1722 30.2083 91.1722 27.1438V21.5298H89.0146V19.097H91.1722V16.5709L93.7041 15.8223V19.097H96.6114V21.5298Z" fill="white"/>
<path d="M107.664 19.0989H110.197V30.7948H107.664V29.1104C106.703 30.444 105.343 31.0989 103.561 31.0989C101.943 31.0989 100.584 30.5141 99.4347 29.3211C98.2858 28.1281 97.7227 26.6545 97.7227 24.9471C97.7227 23.2158 98.2858 21.7657 99.4347 20.5726C100.584 19.3795 101.943 18.7949 103.561 18.7949C105.343 18.7949 106.703 19.4498 107.664 20.7599V19.0989ZM103.96 28.6897C105.015 28.6897 105.906 28.3389 106.609 27.6368C107.312 26.9117 107.664 26.023 107.664 24.9471C107.664 23.8708 107.312 22.9821 106.609 22.2803C105.906 21.5552 105.015 21.2043 103.96 21.2043C102.905 21.2043 102.014 21.5552 101.31 22.2803C100.607 22.9821 100.255 23.8708 100.255 24.9471C100.255 26.023 100.607 26.9117 101.31 27.6368C102.014 28.3389 102.905 28.6897 103.96 28.6897Z" fill="white"/>
<path d="M123.65 23.6136V30.7948H121.117V23.8708C121.117 22.1165 120.109 21.1576 118.492 21.1576C116.709 21.1576 115.513 22.257 115.513 24.526V30.7948H112.981V19.0989H115.513V20.5959C116.287 19.403 117.483 18.7949 119.148 18.7949C121.844 18.7949 123.65 20.6194 123.65 23.6136Z" fill="white"/>
<path d="M135.538 19.0989H138.07V30.7948H135.538V29.1104C134.576 30.444 133.216 31.0989 131.434 31.0989C129.816 31.0989 128.456 30.5141 127.308 29.3211C126.159 28.1281 125.596 26.6545 125.596 24.9471C125.596 23.2158 126.159 21.7657 127.308 20.5726C128.456 19.3795 129.816 18.7949 131.434 18.7949C133.216 18.7949 134.576 19.4498 135.538 20.7599V19.0989ZM131.832 28.6897C132.888 28.6897 133.779 28.3389 134.482 27.6368C135.186 26.9117 135.538 26.023 135.538 24.9471C135.538 23.8708 135.186 22.9821 134.482 22.2803C133.779 21.5552 132.888 21.2043 131.832 21.2043C130.777 21.2043 129.887 21.5552 129.184 22.2803C128.479 22.9821 128.128 23.8708 128.128 24.9471C128.128 26.023 128.479 26.9117 129.184 27.6368C129.887 28.3389 130.777 28.6897 131.832 28.6897Z" fill="white"/>
<path d="M157.557 23.6138V30.795H155.024V23.871C155.024 22.1168 154.016 21.1578 152.399 21.1578C150.616 21.1578 149.42 22.2572 149.42 24.5263V30.795H146.889V14.4209H149.42V20.5963C150.194 19.4032 151.389 18.7951 153.054 18.7951C155.751 18.7951 157.557 20.6196 157.557 23.6138Z" fill="white"/>
<path d="M168.116 19.0977H170.648V30.7936H168.116V29.2965C167.343 30.4895 166.148 31.0975 164.483 31.0975C161.786 31.0975 159.98 29.2732 159.98 26.2789V19.0977H162.513V26.0218C162.513 27.776 163.522 28.7352 165.14 28.7352C166.921 28.7352 168.116 27.6355 168.116 25.3665V19.0977Z" fill="white"/>
<path d="M184.186 20.5728C185.334 21.7659 185.897 23.2162 185.897 24.9473C185.897 26.6547 185.334 28.1285 184.186 29.3214C183.037 30.5145 181.676 31.0991 180.059 31.0991C178.277 31.0991 176.917 30.4442 175.955 29.1106V30.795H173.423V14.4209H175.955V20.7601C176.917 19.45 178.277 18.7951 180.059 18.7951C181.676 18.7951 183.037 19.3799 184.186 20.5728ZM179.66 28.6899C180.715 28.6899 181.606 28.3391 182.309 27.637C183.012 26.9119 183.365 26.0232 183.365 24.9473C183.365 23.871 183.012 22.9823 182.309 22.2806C181.606 21.5555 180.715 21.2046 179.66 21.2046C178.605 21.2046 177.714 21.5555 177.01 22.2806C176.307 22.9823 175.955 23.871 175.955 24.9473C175.955 26.0232 176.307 26.9119 177.01 27.637C177.714 28.3391 178.605 28.6899 179.66 28.6899Z" fill="white"/>
<path opacity="0.1" d="M48.1309 31.8281C48.0935 31.9571 48.0553 32.0857 48.0159 32.2139L47.9778 32.3363C47.9294 32.4904 47.8793 32.6437 47.828 32.7966L47.7929 32.9009C47.739 33.0586 47.6835 33.2157 47.6265 33.372L47.5865 33.4811C47.5298 33.6348 47.4714 33.7877 47.4117 33.94L47.3664 34.0545C47.3059 34.2064 47.2442 34.3577 47.1806 34.5081L47.1325 34.6211C47.0709 34.7653 47.0079 34.9089 46.9437 35.0516L46.8895 35.1708C46.8255 35.3109 46.7602 35.4504 46.6936 35.5893L46.6336 35.7135C46.5674 35.8499 46.4998 35.9855 46.431 36.1204L46.3659 36.2475C46.2957 36.3832 46.2241 36.5184 46.1516 36.6526L46.0877 36.7704C46.0124 36.9081 45.9357 37.0448 45.8577 37.1808L45.7874 37.3029C45.7098 37.4366 45.631 37.5694 45.5511 37.7016L45.4781 37.8209C45.3999 37.9485 45.3207 38.0753 45.2401 38.2013L45.1575 38.3298C45.079 38.4511 44.9994 38.5717 44.9187 38.6917L44.8265 38.8279C44.7461 38.9459 44.6645 39.0631 44.5819 39.1796L44.4851 39.3158C44.4018 39.4317 44.3176 39.5468 44.2323 39.6613L44.1342 39.7926C44.0477 39.9073 43.9599 40.0213 43.8714 40.1345L43.7679 40.2661C43.6771 40.3807 43.5852 40.4944 43.4923 40.6075L43.3877 40.7339C43.3002 40.8389 43.2117 40.9431 43.1225 41.0466C43.0804 41.0954 43.0382 41.1441 42.9957 41.1925C42.9098 41.2908 42.8229 41.3884 42.7353 41.4854L42.592 41.6427C42.5061 41.7363 42.4192 41.8291 42.3319 41.9214C42.2824 41.9736 42.2327 42.0257 42.1828 42.0775C42.0945 42.169 42.0055 42.26 41.9159 42.3502C41.8671 42.3993 41.8181 42.448 41.769 42.4967C41.6746 42.5902 41.5794 42.6828 41.4835 42.7748L41.3574 42.895C41.2541 42.9926 41.1498 43.0893 41.0449 43.1852C40.9946 43.2312 40.9436 43.277 40.8929 43.3225C40.799 43.4068 40.7045 43.4907 40.6092 43.5736C40.5578 43.6185 40.5061 43.6631 40.4542 43.7075C40.3585 43.7894 40.2622 43.8708 40.1653 43.9512C40.1125 43.995 40.0595 44.039 40.0064 44.0823C39.9062 44.1643 39.8054 44.245 39.7038 44.3254C39.6543 44.3646 39.6048 44.4039 39.5548 44.4427C39.451 44.5236 39.3462 44.6036 39.2409 44.683C39.1786 44.7298 39.1163 44.7764 39.0536 44.8228C38.9551 44.8957 38.856 44.9677 38.7564 45.0391C38.6948 45.0832 38.6329 45.1271 38.5709 45.1708C38.4691 45.2425 38.3666 45.3132 38.2635 45.3834C38.1995 45.4271 38.135 45.4703 38.0705 45.5134C37.9615 45.5862 37.852 45.6582 37.7417 45.7293C37.6871 45.7645 37.6322 45.7993 37.5773 45.8341C37.4601 45.9084 37.3424 45.982 37.2239 46.0543C37.1733 46.0853 37.1222 46.1158 37.0713 46.1463C36.9544 46.2166 36.8369 46.2859 36.7187 46.3543L36.5649 46.4423C36.4442 46.5111 36.323 46.5788 36.201 46.6454L36.0535 46.7254C35.9269 46.7934 35.7997 46.8603 35.672 46.9262L35.5349 46.9966C35.3991 47.0655 35.2627 47.1331 35.1256 47.1995L35.0133 47.254C34.8685 47.3234 34.7226 47.3911 34.5761 47.4577L34.4572 47.5116C34.3049 47.5799 34.1517 47.6467 33.9978 47.7121L33.8988 47.7537C33.7424 47.8193 33.5851 47.8835 33.4272 47.9459L33.3314 47.9832C33.1768 48.0436 33.0214 48.1026 32.8654 48.1599L32.7682 48.1952C32.6119 48.2518 32.4549 48.307 32.2972 48.3607L32.2021 48.3926C32.0427 48.4461 31.8824 48.498 31.7216 48.5482L31.6288 48.5771C31.4666 48.6271 31.3036 48.6754 31.14 48.7222L31.0497 48.748C30.8817 48.7953 30.7129 48.8409 30.5434 48.8848L30.4671 48.9046C30.2862 48.9508 30.1047 48.9949 29.9225 49.0371L29.8871 49.0454C29.6923 49.0902 29.4967 49.1329 29.3001 49.173L29.2816 49.1767C29.0893 49.2158 28.8963 49.2527 28.7025 49.2873L28.6546 49.2957C28.469 49.3285 28.2827 49.3593 28.0958 49.3881L28.0361 49.397C27.8524 49.4248 27.6683 49.4505 27.4833 49.4741L27.4181 49.4823C27.2337 49.5055 27.0487 49.5266 26.8633 49.5457L26.7993 49.5521C26.6113 49.5709 26.4227 49.5875 26.2334 49.6022L26.1784 49.6064C25.9844 49.6211 25.7896 49.6332 25.5942 49.6434L25.5552 49.6454C25.3524 49.6557 25.1489 49.6632 24.945 49.6686L24.9283 49.6691C24.7171 49.6745 24.5054 49.6771 24.2929 49.6771C24.0806 49.6771 23.8689 49.6745 23.6576 49.6691L23.6407 49.6686C23.4368 49.6634 23.2337 49.6555 23.0311 49.6454L22.9912 49.6434C22.7962 49.6334 22.6017 49.6211 22.4077 49.6064L22.3524 49.6022C22.1632 49.5876 21.9748 49.5708 21.7869 49.5521L21.7223 49.5455C21.5369 49.5266 21.3521 49.5054 21.1679 49.4823L21.1027 49.4741C20.9177 49.4504 20.7336 49.4248 20.5499 49.397L20.4902 49.3881C20.3038 49.3595 20.1182 49.3288 19.9333 49.2961L19.8826 49.2872C19.6899 49.2527 19.498 49.2161 19.3069 49.1771L19.2848 49.1727C19.089 49.1326 18.894 49.0903 18.7 49.0457L18.6613 49.0366C18.4797 48.9946 18.299 48.9505 18.1189 48.9046L18.0424 48.8848C17.873 48.8409 17.7042 48.7953 17.5363 48.748L17.4458 48.7222C17.2828 48.6757 17.1204 48.6275 16.9586 48.5776L16.8637 48.548C16.7039 48.498 16.5447 48.4466 16.3862 48.3935L16.2867 48.3599C16.1301 48.3067 15.9744 48.2518 15.8193 48.1957L15.7203 48.1598C15.5656 48.103 15.4115 48.0444 15.2582 47.9846L15.1568 47.945C15.001 47.8835 14.846 47.8202 14.6918 47.7555L14.5826 47.7096C14.4308 47.6452 14.2798 47.5793 14.1294 47.5118L14.0081 47.457C13.863 47.3909 13.7187 47.3237 13.575 47.255L13.4562 47.1973C13.3206 47.1316 13.1856 47.065 13.0514 46.9968C13.0046 46.9731 12.9581 46.9489 12.9115 46.9249C12.7848 46.8594 12.6584 46.7931 12.533 46.7257L12.3824 46.6439C12.2613 46.5776 12.1409 46.5104 12.0211 46.4423L11.8672 46.3543C11.7491 46.2859 11.6316 46.2166 11.5147 46.1463L11.3621 46.0543C11.2442 45.9823 11.1271 45.9093 11.0106 45.8354C10.9522 45.7984 10.8939 45.7613 10.8357 45.7238C10.7284 45.6545 10.6216 45.5843 10.5154 45.5134C10.45 45.4698 10.3848 45.4258 10.3198 45.3816C10.2186 45.3126 10.1178 45.2431 10.0177 45.1726C9.95475 45.1284 9.89213 45.0839 9.82959 45.0391C9.72994 44.9677 9.63085 44.8955 9.53231 44.8228C9.46849 44.7757 9.40512 44.7282 9.34186 44.6805C9.23879 44.6027 9.13611 44.5245 9.03435 44.4452C8.98295 44.4052 8.93174 44.3646 8.88073 44.3243C8.7797 44.2444 8.67931 44.1637 8.57957 44.0823C8.52643 44.0389 8.47348 43.995 8.42071 43.9512C8.32373 43.8708 8.2274 43.7894 8.13171 43.7075C8.07986 43.6631 8.02819 43.6185 7.9767 43.5736C7.88148 43.4907 7.78699 43.407 7.69306 43.3225C7.64231 43.277 7.59147 43.2312 7.541 43.1852C7.43601 43.0893 7.33185 42.9926 7.22852 42.895L7.10243 42.7748C7.00721 42.6836 6.91281 42.5914 6.81906 42.4987C6.76923 42.4494 6.71959 42.4 6.67014 42.3502C6.58043 42.26 6.49146 42.169 6.40315 42.0775C6.35324 42.0257 6.3035 41.9736 6.25404 41.9214C6.16665 41.8291 6.07998 41.7363 5.99397 41.6427L5.85057 41.4854C5.76418 41.3896 5.67844 41.2934 5.59352 41.1963L5.46174 41.0446C5.37333 40.942 5.28574 40.8387 5.19907 40.7346L5.09022 40.6032C4.99859 40.4917 4.90796 40.3794 4.81826 40.2663C4.78235 40.2211 4.7467 40.1755 4.71115 40.1302C4.6266 40.022 4.54289 39.9131 4.46009 39.8035C4.42298 39.7544 4.38614 39.705 4.34939 39.6558C4.26733 39.5454 4.18621 39.4343 4.1059 39.3226L3.99916 39.1727C3.92013 39.0611 3.84195 38.9486 3.76477 38.8355L3.66171 38.6832C3.58453 38.5684 3.50828 38.4527 3.43295 38.3366L3.34057 38.1928C3.26321 38.0716 3.18695 37.9496 3.11171 37.8271L3.03186 37.6964C2.95404 37.568 2.8776 37.4386 2.80208 37.3086L2.725 37.175C2.64921 37.0427 2.5746 36.9095 2.50121 36.7755L2.43084 36.6461C2.36122 36.5171 2.2926 36.3875 2.22519 36.2572L2.15124 36.1129C2.08493 35.9826 2.01973 35.8517 1.95562 35.7202L1.88812 35.5803C1.82439 35.4472 1.76186 35.3136 1.70042 35.1793L1.63826 35.0423C1.57582 34.9035 1.51466 34.764 1.45471 34.6239L1.40314 34.5027C1.34051 34.354 1.27936 34.2045 1.21959 34.0545L1.17428 33.94C1.1146 33.7881 1.05639 33.6354 0.999663 33.482L0.957667 33.367C0.901396 33.2122 0.846414 33.057 0.79309 32.9009L0.758001 32.7966C0.706611 32.6437 0.656695 32.4904 0.60816 32.3363L0.570125 32.2139C0.530524 32.0858 0.492488 31.957 0.455005 31.8281C0.166558 30.7395 0.729728 29.5887 1.78479 29.1728C7.15373 27.0568 15.2436 25.7099 24.2929 25.7099C33.3425 25.7099 41.4322 27.0568 46.8011 29.1728C47.8563 29.5887 48.4195 30.7395 48.1309 31.8281ZM0.454912 18.0049C0.492764 17.8749 0.530984 17.7449 0.570954 17.6157L0.607056 17.4998C0.656236 17.3435 0.706796 17.188 0.758922 17.0331L0.792354 16.9337C0.846414 16.7753 0.902224 16.6176 0.959417 16.4605L0.998097 16.3548C1.05566 16.199 1.11478 16.044 1.17529 15.8898L1.21839 15.7809C1.27908 15.6284 1.34125 15.4763 1.40497 15.3253L1.45204 15.2148C1.51365 15.0708 1.57637 14.9273 1.64057 14.7848L1.69859 14.6571C1.76057 14.5216 1.82375 14.3866 1.88812 14.2522L1.95489 14.1139C2.01972 13.9805 2.08585 13.8478 2.15308 13.7158L2.22216 13.5811C2.29104 13.448 2.36104 13.3155 2.43222 13.1839L2.50111 13.0571C2.57451 12.9231 2.64912 12.7899 2.725 12.6574L2.80208 12.5238C2.87815 12.3927 2.95533 12.2623 3.03371 12.1329L3.10931 12.0091C3.18557 11.8849 3.26293 11.7612 3.34131 11.6384L3.43295 11.496C3.50873 11.3789 3.58545 11.2626 3.66319 11.147L3.76477 10.997C3.84259 10.883 3.92142 10.7697 4.00109 10.657L4.10452 10.5118C4.18555 10.3991 4.26733 10.287 4.35023 10.1757L4.45438 10.0364C4.53985 9.92317 4.62642 9.81062 4.71382 9.69888L4.81807 9.5664C4.9087 9.452 5.00033 9.33853 5.09307 9.22579L5.19852 9.09854C5.28722 8.99214 5.37673 8.88647 5.46717 8.78155L5.58939 8.64079C5.67761 8.54 5.76657 8.43994 5.85637 8.34062L5.9889 8.19517C6.07814 8.09787 6.1683 8.0014 6.25911 7.90556L6.3979 7.7604C6.48825 7.66668 6.57915 7.57369 6.67088 7.48145C6.72005 7.43201 6.7695 7.38277 6.81906 7.3337C6.91281 7.241 7.00721 7.14883 7.10243 7.0576L7.22852 6.93742C7.33175 6.83985 7.43601 6.74319 7.541 6.64727C7.59137 6.60123 7.64221 6.55556 7.69306 6.5099C7.78708 6.42555 7.88148 6.34176 7.9767 6.25879C8.02791 6.21423 8.0793 6.16976 8.13088 6.12556C8.22822 6.04223 8.32621 5.95963 8.42476 5.87777C8.47504 5.83605 8.52533 5.79444 8.57598 5.75309C8.67719 5.67029 8.77924 5.58853 8.88183 5.50731C8.93239 5.46733 8.98286 5.42728 9.03369 5.38768C9.13758 5.30682 9.2423 5.22706 9.34747 5.14778C9.40522 5.10432 9.46305 5.06077 9.52117 5.01777C9.62394 4.94169 9.72737 4.86663 9.83134 4.7921C9.89323 4.74773 9.9553 4.70363 10.0177 4.65979C10.1178 4.58942 10.2186 4.51977 10.3198 4.45086C10.3848 4.40658 10.45 4.36265 10.5154 4.31901C10.6217 4.24818 10.7284 4.17788 10.8357 4.10861C10.8939 4.07113 10.9522 4.034 11.0106 3.99697C11.1271 3.92319 11.2442 3.85006 11.3621 3.77811C11.4124 3.74742 11.463 3.7171 11.5135 3.68678C11.6324 3.6154 11.7518 3.54492 11.8719 3.47546L12.0159 3.39295C12.1378 3.32368 12.2603 3.25532 12.3834 3.18797L12.533 3.10674C12.6584 3.03931 12.7847 2.97297 12.9115 2.90755C12.9581 2.88347 13.0046 2.85931 13.0514 2.8356C13.1856 2.76744 13.3206 2.70082 13.4562 2.63504L13.575 2.57733C13.7185 2.50851 13.863 2.44144 14.0081 2.37547L14.1294 2.32053C14.2798 2.25318 14.4308 2.18729 14.5826 2.12279L14.6918 2.07686C14.846 2.01227 15.001 1.94887 15.1568 1.88731L15.2582 1.84781C15.4115 1.78799 15.5656 1.72946 15.7203 1.67259L15.8193 1.63676C15.9743 1.58052 16.1301 1.52567 16.2867 1.47247L16.3862 1.43894C16.5447 1.38592 16.7039 1.33437 16.8637 1.2844L16.9586 1.25481C17.1204 1.20501 17.2828 1.15686 17.4458 1.11019L17.5363 1.08437C17.7042 1.03696 17.873 0.991476 18.0424 0.947649L18.1189 0.927803C18.2989 0.881771 18.4797 0.837761 18.6613 0.795771L18.7 0.786675C18.894 0.742021 19.089 0.699756 19.2848 0.659697L19.3069 0.655286C19.498 0.616329 19.6899 0.579761 19.8826 0.545213L19.9333 0.536393C20.1182 0.503684 20.304 0.472995 20.4902 0.444329L20.5499 0.435416C20.7336 0.407668 20.9177 0.381941 21.1027 0.358236L21.1679 0.350059C21.3521 0.326998 21.5369 0.305957 21.7223 0.286845L21.7869 0.280322C21.9748 0.261579 22.1632 0.244857 22.3524 0.230248L22.4077 0.225929C22.6017 0.211412 22.7962 0.199191 22.9912 0.189085L23.0311 0.186972C23.2337 0.176866 23.4368 0.169055 23.6407 0.163818L23.6576 0.163267C23.8687 0.15803 24.0806 0.155273 24.2929 0.155273C24.5054 0.155273 24.7171 0.157845 24.9283 0.163267L24.945 0.163818C25.1489 0.169055 25.3523 0.176773 25.5552 0.186972L25.5942 0.189085C25.7896 0.199191 25.9842 0.211412 26.1784 0.225929L26.2334 0.230248C26.4227 0.244857 26.6113 0.261488 26.7993 0.280322L26.8633 0.286754C27.0487 0.305773 27.2337 0.326906 27.4181 0.350059L27.4833 0.358236C27.6681 0.38185 27.8524 0.407668 28.0361 0.435416L28.0958 0.444329C28.2827 0.473088 28.469 0.503959 28.6546 0.536761L28.7025 0.54503C28.8963 0.579668 29.0893 0.616604 29.2816 0.655745L29.3001 0.659421C29.4967 0.699572 29.6923 0.742113 29.8871 0.78695L29.9225 0.795312C30.1049 0.837485 30.2862 0.88168 30.4671 0.927803L30.5434 0.947649C30.7129 0.991476 30.8817 1.03705 31.0497 1.08437L31.14 1.11019C31.3036 1.15704 31.4666 1.20528 31.6288 1.25526L31.7216 1.28411C31.8824 1.33437 32.0427 1.38628 32.2021 1.43976L32.2972 1.47173C32.4549 1.5254 32.6119 1.58061 32.7682 1.63731L32.8654 1.6725C33.0215 1.72973 33.1768 1.78882 33.3314 1.84918L33.4272 1.88649C33.5852 1.94887 33.7424 2.01309 33.8988 2.07869L33.9978 2.12032C34.1517 2.18564 34.3049 2.25245 34.4572 2.32081L34.5761 2.37473C34.7226 2.44135 34.8685 2.50906 35.0133 2.57844L35.1256 2.63292C35.2627 2.69944 35.3991 2.76688 35.5349 2.83579L35.672 2.90627C35.7997 2.97214 35.9269 3.03903 36.0535 3.10703L36.2 3.18659C36.324 3.2544 36.4474 3.32313 36.57 3.39295L36.714 3.47546C36.8341 3.54492 36.9536 3.6154 37.0725 3.68678C37.1229 3.7171 37.1735 3.74742 37.2239 3.77811C37.3424 3.85051 37.4601 3.92403 37.5773 3.99826C37.6322 4.03309 37.6871 4.06791 37.7417 4.1031C37.852 4.17422 37.9615 4.24624 38.0705 4.31901C38.135 4.3621 38.1995 4.40538 38.2635 4.44903C38.3665 4.51913 38.4691 4.59006 38.5709 4.66164C38.6323 4.70482 38.6936 4.74837 38.7546 4.7921C38.8586 4.86663 38.9621 4.94169 39.0648 5.01777C39.1218 5.05994 39.1786 5.10258 39.2354 5.14529C39.3426 5.22615 39.4494 5.30755 39.5553 5.39006C39.6048 5.42856 39.6537 5.46733 39.7028 5.5062C39.8057 5.58779 39.9083 5.66994 40.01 5.75309L40.1612 5.87777C40.2598 5.95963 40.3578 6.04223 40.4551 6.12556C40.5066 6.16976 40.5581 6.21423 40.6092 6.25879C40.7044 6.34186 40.799 6.42555 40.8929 6.5099C40.9437 6.55547 40.9945 6.60123 41.0449 6.64727C41.1499 6.74309 41.2542 6.83976 41.3574 6.93742L41.4835 7.0576C41.5794 7.14958 41.6746 7.24228 41.769 7.33572C41.8179 7.38414 41.8667 7.43265 41.9151 7.48145C42.0068 7.57369 42.0977 7.66668 42.188 7.7604C42.2344 7.80863 42.2808 7.85696 42.3269 7.90556C42.4177 8.0014 42.5079 8.09787 42.597 8.19517L42.7296 8.34062C42.8205 8.44114 42.9104 8.54238 42.9997 8.64437L43.1173 8.77972C43.2085 8.88547 43.2989 8.99205 43.3883 9.09946L43.4896 9.22165C43.5834 9.33586 43.6762 9.45099 43.7682 9.56676L43.8689 9.69465C43.9603 9.81153 44.051 9.92923 44.1403 10.0478L44.2314 10.1699C44.3174 10.2853 44.4023 10.4014 44.4862 10.5184L44.5802 10.6502C44.6633 10.7677 44.7454 10.8858 44.8265 11.0047L44.9173 11.1388C44.9984 11.2594 45.0784 11.3808 45.1575 11.5028L45.2395 11.6301C45.3209 11.7577 45.4013 11.8861 45.4805 12.0153L45.5492 12.1278C45.6298 12.261 45.7091 12.3949 45.7874 12.5296L45.8577 12.6517C45.9357 12.7878 46.0124 12.9245 46.0877 13.0622L46.1502 13.1773C46.2244 13.3145 46.2975 13.4525 46.3691 13.5912L46.4291 13.7082C46.4987 13.8449 46.5671 13.9823 46.6343 14.1204L46.6936 14.2432C46.7608 14.3834 46.8266 14.5241 46.8913 14.6657L46.9411 14.7753C47.0072 14.922 47.0719 15.0695 47.1352 15.2177L47.1789 15.3202C47.2433 15.473 47.306 15.6266 47.3675 15.7809L47.4107 15.8898C47.4714 16.0444 47.5306 16.1996 47.5882 16.3558L47.6248 16.4558C47.6826 16.6144 47.739 16.7736 47.7936 16.9337L47.8271 17.0331C47.8791 17.188 47.9298 17.3435 47.9789 17.4998L48.015 17.6157C48.0549 17.7449 48.0932 17.8749 48.131 18.0049C48.4191 19.0934 47.856 20.2439 46.8011 20.6595C41.4322 22.7755 33.3425 24.1226 24.2929 24.1226C15.2436 24.1226 7.15373 22.7755 1.78479 20.6595C0.729913 20.2439 0.166927 19.0934 0.454912 18.0049Z" fill="white"/>
<path opacity="0.3" d="M45.1046 28.5593C43.3745 38.4631 34.7158 45.9927 24.2935 45.9927C13.8713 45.9927 5.21254 38.4631 3.48242 28.5593C8.78792 26.7997 16.1523 25.7095 24.2935 25.7095C32.435 25.7095 39.7991 26.7997 45.1046 28.5593ZM3.48251 21.2722C5.21263 11.3684 13.8713 3.83887 24.2935 3.83887C34.7158 3.83887 43.3745 11.3684 45.1046 21.2722C39.7991 23.0318 32.435 24.1222 24.2935 24.1222C16.1523 24.1222 8.78801 23.0318 3.48251 21.2722Z" fill="white"/>
<path opacity="0.3" d="M41.5289 27.5494C40.2565 35.9052 33.0247 42.3084 24.2937 42.3084C15.5629 42.3084 8.331 35.9052 7.05859 27.5494C11.8933 26.3922 17.8502 25.709 24.2937 25.709C30.7374 25.709 36.6941 26.3922 41.5289 27.5494ZM7.05868 22.2813C8.33109 13.9254 15.5629 7.52246 24.2937 7.52246C33.0247 7.52246 40.2564 13.9254 41.5288 22.2813C36.6941 23.4386 30.7374 24.1217 24.2937 24.1217C17.8502 24.1217 11.8934 23.4386 7.05868 22.2813Z" fill="white"/>
<path opacity="0.3" d="M37.9032 26.8096C36.9791 33.4848 31.2382 38.6258 24.2929 38.6258C17.3477 38.6258 11.6068 33.4848 10.6826 26.8096C14.7485 26.1078 19.3792 25.7106 24.2929 25.7106C29.2067 25.7106 33.8372 26.1078 37.9032 26.8096ZM10.6826 23.0243C11.6068 16.3489 17.3477 11.208 24.2929 11.208C31.2382 11.208 36.9791 16.3489 37.9032 23.0243C33.8372 23.7261 29.2067 24.1233 24.2929 24.1233C19.3792 24.1233 14.7485 23.7261 10.6826 23.0243Z" fill="white"/>
<path d="M34.2493 26.2801C33.5825 31.1716 29.3797 34.9416 24.2935 34.9416C19.2075 34.9416 15.0048 31.1716 14.3379 26.2801C17.4458 25.9115 20.7979 25.7103 24.2935 25.7103C27.7892 25.7103 31.1415 25.9115 34.2493 26.2801ZM14.3379 23.5531C15.0048 18.6615 19.2077 14.8916 24.2935 14.8916C29.3796 14.8916 33.5825 18.6615 34.2493 23.5531C31.1415 23.9217 27.7892 24.123 24.2935 24.123C20.7979 24.123 17.4458 23.9217 14.3379 23.5531Z" fill="white"/>
</svg>
