<svg width="84" height="84" viewBox="0 0 84 84" fill="none" xmlns="http://www.w3.org/2000/svg">
<path opacity="0.35" d="M23.94 78.9601C20.9294 78.9601 18.48 76.5107 18.48 73.5001V67.4218C18.48 63.7242 17.2737 60.024 14.9931 56.7228C11.4458 51.5895 9.57092 45.5676 9.57092 39.3104C9.57092 25.1085 17.6677 8.52441 40.4863 8.52441C57.9112 8.52441 68.7918 17.7283 71.2101 34.4703L76.639 43.7784C77.7092 45.6927 77.9629 47.8129 77.3917 49.8146C76.8213 51.8088 75.5 53.4636 73.6722 54.4733C73.6201 54.5027 73.5663 54.5304 73.5134 54.5573L71.4 55.6064V58.2247C71.4 62.3491 69.6544 66.3097 66.6103 69.0901C64.013 71.4622 60.6614 72.8239 57.12 72.9574V73.5001C57.12 76.5107 54.6705 78.9601 51.66 78.9601H23.94Z" fill="black"/>
<path d="M22.26 77.2799C19.2495 77.2799 16.8 74.8305 16.8 71.8199V65.7417C16.8 62.044 15.5938 58.3438 13.3132 55.0426C9.76587 49.9094 7.89099 43.8874 7.89099 37.6302C7.89099 23.4284 15.9878 6.84424 38.8064 6.84424C56.2313 6.84424 67.1118 16.0481 69.5302 32.7902L74.9591 42.0982C76.0293 44.0126 76.283 46.1327 75.7118 48.1344C75.1414 50.1286 73.8201 51.7834 71.9922 52.7931C71.9402 52.8225 71.8864 52.8502 71.8335 52.8771L69.72 53.9262V56.5445C69.72 60.6689 67.9745 64.6295 64.9303 67.4099C62.3331 69.7821 58.9815 71.1437 55.44 71.2773V71.8199C55.44 74.8305 52.9906 77.2799 49.98 77.2799H22.26Z" fill="#F2F2F2"/>
<path d="M49.98 71.82V65.5351L54.0044 65.7888C59.5862 66.2944 64.26 61.9886 64.26 56.5437V50.5453L69.3512 48.0127C70.497 47.3793 70.8784 45.9866 70.2425 44.8467L64.26 34.5895C62.8597 22.8127 56.6236 12.3018 38.8055 12.3018C20.9874 12.3018 13.351 24.3322 13.351 37.6294C13.351 42.9483 15.0058 47.8867 17.8055 51.9388C20.6052 55.991 22.26 60.8025 22.26 65.7417V71.82H49.98Z" fill="#FFC7A3"/>
<path d="M33.033 48.4605V50.4513C33.033 53.0629 35.1582 51.2401 37.779 51.2401V52.0801C40.3998 52.0801 42.4646 53.0629 42.4646 50.4513V48.4605C42.4646 42.9862 49.424 40.2033 49.424 32.9054C49.424 26.5189 44.1992 21.8401 37.753 21.8401H37.711C31.2657 21.8401 26.04 26.5189 26.04 32.9054C26.04 40.2033 33.033 42.9862 33.033 48.4605Z" fill="url(#paint0_linear_46_1361)"/>
<path d="M40.9207 48.4268H39.4128V37.1565H36.4048V48.4268H34.897V37.1565H32.9457C31.0381 37.1565 29.4866 35.6042 29.4866 33.6974C29.4866 31.7906 31.0389 30.2383 32.9457 30.2383C34.8525 30.2383 36.4048 31.7906 36.4048 33.6974V35.6487H39.4128V33.6974C39.4128 31.7898 40.9652 30.2383 42.872 30.2383C44.7788 30.2383 46.3311 31.7906 46.3311 33.6974C46.3311 35.6042 44.7788 37.1565 42.872 37.1565H40.9207V48.4268ZM40.9207 35.6487H42.872C43.948 35.6487 44.8233 34.7734 44.8233 33.6974C44.8233 32.6214 43.948 31.7461 42.872 31.7461C41.7959 31.7461 40.9207 32.6214 40.9207 33.6974V35.6487ZM32.9457 31.7461C31.8697 31.7461 30.9944 32.6214 30.9944 33.6974C30.9944 34.7734 31.8697 35.6487 32.9457 35.6487H34.897V33.6974C34.897 32.6214 34.0217 31.7461 32.9457 31.7461Z" fill="white"/>
<path d="M40.976 53.4594L40.1217 54.0289H35.3934L34.5391 53.4594C33.5815 52.821 32.9557 51.792 32.8289 50.6487L32.2417 45.3601H43.2751L42.6871 50.6487C42.5603 51.7928 41.9336 52.8218 40.976 53.4594Z" fill="#39279C"/>
<path d="M37.8 56.28C36.4081 56.28 35.28 55.1519 35.28 53.76H40.32C40.32 55.1519 39.1919 56.28 37.8 56.28Z" fill="#39279C"/>
<path d="M49.98 73.0801H22.26C21.5636 73.0801 21 72.5156 21 71.8201V65.7418C21 61.1865 19.5367 56.6614 16.7689 52.6555C13.7088 48.227 12.0909 43.0308 12.0909 37.6296C12.0909 24.7767 19.1083 11.0427 38.8055 11.0427C54.3673 11.0427 63.5855 19.042 65.4797 34.1805L71.3303 44.2126C71.8175 45.0846 71.9351 46.0598 71.6721 46.9788C71.4117 47.891 70.8036 48.6495 69.9602 49.1157L65.52 51.3266V56.5447C65.52 59.4922 64.2726 62.3222 62.0978 64.3088C59.8953 66.3206 56.9075 67.3143 53.891 67.0438L51.24 66.8767V71.8201C51.24 72.5156 50.6763 73.0801 49.98 73.0801ZM23.52 70.5601H48.72V65.5352C48.72 65.1874 48.8636 64.8548 49.1173 64.6162C49.371 64.3785 49.7095 64.255 50.0589 64.2777L54.0834 64.5314C56.4589 64.7498 58.6916 64.0064 60.3977 62.4482C62.076 60.9152 63 58.8177 63 56.5438V50.5454C63 50.0674 63.2705 49.6298 63.6989 49.4173L68.7901 46.8838C69.0665 46.7293 69.1967 46.4714 69.2504 46.2858C69.3269 46.0161 69.2891 45.723 69.1429 45.4609L63.173 35.2238C63.0857 35.0743 63.0311 34.9088 63.0101 34.7374C61.3401 20.6859 53.1963 13.561 38.8071 13.561C20.9689 13.561 14.6126 25.9939 14.6126 37.6279C14.6126 42.5142 16.0759 47.2148 18.8437 51.2216C21.9021 55.6518 23.52 60.6724 23.52 65.7418V70.5601Z" fill="#1C1E1D"/>
<defs>
<linearGradient id="paint0_linear_46_1361" x1="26.04" y1="37.0507" x2="49.424" y2="37.0507" gradientUnits="userSpaceOnUse">
<stop stop-color="#55D6FF"/>
<stop offset="0.515625" stop-color="#6D55FE"/>
<stop offset="1" stop-color="#E558A0"/>
</linearGradient>
</defs>
</svg>
