<svg width="85" height="84" viewBox="0 0 85 84" fill="none" xmlns="http://www.w3.org/2000/svg">
<path opacity="0.35" d="M26.6758 74.088C23.6518 74.088 21.2087 71.652 21.1999 68.628C21.1952 67.032 21.5266 65.436 22.1104 64.008H12.3664C9.34241 64.008 6.89931 61.572 6.89051 58.548C6.87583 53.5081 10.0546 48.9721 14.7535 47.2081L17.1025 46.2001C16.8488 45.6121 16.6794 45.1081 16.5099 44.6041C15.6687 44.1841 14.8223 42.0001 14.2324 41.3281C11.704 38.4721 10.6853 34.7761 13.5317 31.5002L13.6155 31.4162C12.3276 21.8402 17.8567 16.7162 23.4803 15.2042C24.0678 15.0362 26.3343 14.5322 29.0223 14.5322C33.5583 14.5322 36.083 16.1282 37.4316 17.7242C40.3753 18.9842 42.4873 23.1002 43.5874 25.8722C45.1692 21.0002 49.1032 16.2122 52.9643 15.2042C53.5518 15.0362 55.8183 14.5322 58.5063 14.5322C63.0423 14.5322 65.567 16.1282 66.9156 17.7242C69.4388 18.8162 71.3757 20.4962 72.5583 22.7642C74.1629 25.7042 74.2564 28.9802 73.9275 31.4162L74.0117 31.5002C76.8775 34.8601 75.8845 39.9841 73.373 42.9241C72.7032 43.6801 71.9489 44.2681 71.1102 44.6881C70.9436 45.1921 70.7773 45.7801 70.5268 46.2841L72.9657 47.2921C77.6749 49.0561 80.7958 53.5081 80.8108 58.632C80.8196 61.656 78.3907 64.092 75.3667 64.092H65.7067C66.2148 65.52 66.5555 67.116 66.5601 68.712C66.5689 71.736 64.14 74.172 61.116 74.172H26.676L26.6758 74.088Z" fill="black"/>
<path d="M24.9908 72.408C21.9668 72.408 19.5237 69.9721 19.5149 66.9481C19.5103 65.3521 19.8416 63.7561 20.4255 62.3281H10.6815C7.65747 62.3281 5.21438 59.8921 5.20557 56.8681C5.19089 51.8281 8.36968 47.2922 13.0685 45.5282L15.4176 44.5202C15.1639 43.9322 14.9944 43.4282 14.825 42.9242C13.9837 42.5042 13.142 41.9162 12.5518 41.1602C10.0235 38.3042 9.00034 33.0962 11.8466 29.7362L11.9303 29.6522C10.6427 20.1603 16.1718 15.0363 21.7953 13.5243C22.3829 13.3563 24.6494 12.8523 27.3374 12.8523C31.8734 12.8523 34.398 14.4483 35.7467 16.0443C38.6904 17.3043 40.7965 19.4043 41.8965 22.1763C43.4784 17.3043 47.4183 14.5323 51.1954 13.5243C51.7829 13.3563 54.0494 12.8523 56.7374 12.8523C61.2734 12.8523 63.798 14.4483 65.1467 16.0443C67.6699 17.1363 69.6068 18.8163 70.7894 21.0843C72.3939 24.0242 72.4875 27.3002 72.1586 29.7362L72.2428 29.8202C75.1086 33.1802 74.1155 38.3042 71.6041 41.2442C70.9343 42.0002 70.18 42.5882 69.3412 43.0082C69.1747 43.5122 69.0084 44.1002 68.7579 44.6042L71.1968 45.6122C75.9059 47.3762 79.0269 51.8281 79.0418 56.9521C79.0506 59.9761 76.6217 62.4121 73.5977 62.4121H64.0217C64.5299 63.8401 64.8705 65.4361 64.8752 67.0321C64.884 70.0561 62.4551 72.492 59.4311 72.492H24.9911L24.9908 72.408Z" fill="white"/>
<path d="M55.0163 27.5522L47.9524 24.8643C47.6235 27.3002 44.4406 30.4082 41.9206 30.4082C39.4006 30.4082 36.5353 27.2162 36.1924 24.8643L29.2283 27.5522C26.627 28.4762 24.7863 30.9962 24.7944 33.7682H59.4024C59.3943 30.9962 57.623 28.4762 55.0163 27.5522Z" fill="#96C362"/>
<path d="M40.8863 50.2319L32.226 47.3759L32.9722 44.016C34.8158 42.504 35.1459 40.488 35.9781 37.8C36.736 38.472 37.9113 38.22 38.8321 37.128C39.8367 35.952 40.0838 34.272 39.4091 33.348C38.9029 32.592 37.8949 32.592 36.9726 33.18C37.22 31.584 37.0476 30.072 37.0437 28.728C37.0268 22.9321 32.9843 19.3201 27.6923 19.3201C22.4003 19.3201 18.3788 22.9321 18.3962 28.896C18.4001 30.24 18.3205 31.752 18.5774 33.432C18.4072 32.676 17.0632 32.676 16.5616 33.516C15.8923 34.44 16.1492 36.12 17.1606 37.296C18.172 38.472 19.0125 38.64 19.7658 37.716C20.3622 40.572 20.7038 42.504 22.3882 44.016L23.4062 47.4599L15.0985 50.3159C12.4972 51.2399 10.6566 53.7599 10.6646 56.5319H45.2726C45.2643 53.6759 43.493 51.1559 40.8863 50.2319Z" fill="#D47F56"/>
<path opacity="0.35" d="M27.8528 45.6121C30.2048 45.6121 32.3842 44.0161 32.3842 44.0161C32.3842 44.0161 31.3042 48.1321 27.8602 48.1321C24.4162 48.1321 23.0602 44.0161 23.0602 44.0161C23.0602 44.0161 25.5008 45.6121 27.8528 45.6121Z" fill="#1C1E1D"/>
<path d="M40.8863 50.2319L32.6464 47.5439C32.3175 49.9799 30.3069 51.8279 27.7869 51.8279C25.2669 51.8279 23.2455 49.9799 22.9024 47.5439L15.0983 50.2319C12.4969 51.1559 10.6563 53.6759 10.6644 56.4479H45.2724C45.2643 53.6759 43.4929 51.1559 40.8863 50.2319Z" fill="url(#paint0_linear_46_1372)"/>
<path d="M36.7392 39.5642C36.2352 39.5642 35.7309 39.4802 35.4785 39.3122C34.8057 39.0602 34.5515 38.3042 34.8016 37.6322C35.0516 36.9602 35.8069 36.7082 36.3956 36.9602C36.5639 37.0442 37.0681 37.1282 37.4029 36.7082C38.0724 35.8682 38.2363 34.4402 37.9833 34.1042C37.899 34.0202 37.8153 34.1042 37.6475 34.1882C37.2285 34.5242 36.6405 34.5242 36.2198 34.2722C35.799 34.0202 35.5456 33.5162 35.6279 32.9282C35.9592 31.3322 36.1245 30.4082 36.1211 29.2322C36.1064 24.1923 32.6522 20.6643 27.7802 20.6643C27.1082 20.6643 26.5184 20.0763 26.5165 19.4043C26.5145 18.7323 27.1008 18.1443 27.7728 18.1443C34.0728 18.1443 38.6223 22.7643 38.6411 29.2322C38.6436 30.0722 38.5618 30.8282 38.48 31.5842C39.0682 31.6682 39.5732 32.0042 39.9104 32.4242C41.1748 33.9362 40.5951 36.7922 39.3395 38.3042C38.5025 39.3122 37.4952 39.5642 36.7392 39.5642Z" fill="#1C1E1D"/>
<path d="M45.2772 58.128C44.6052 58.128 44.0155 57.54 44.0136 56.868C44.007 54.6 42.5731 52.584 40.3869 51.828C40.3027 51.744 40.1347 51.744 40.0504 51.66L33.7362 46.788C33.147 46.368 33.0608 45.612 33.4791 45.024C33.8974 44.436 34.6531 44.352 35.2424 44.772L41.388 49.476C44.4155 50.652 46.44 53.592 46.4496 56.868C46.5358 57.624 45.9492 58.128 45.2772 58.128Z" fill="#1C1E1D"/>
<path d="M38.3893 58.1281H10.6693C9.99728 58.1281 9.40757 57.5401 9.40561 56.8681C9.39583 53.5081 11.4873 50.5681 14.6761 49.4761L21.22 46.7041L21.2168 45.6121C19.1945 43.4282 18.5996 41.0762 18.4275 39.6482C17.5035 39.6482 16.4945 39.3122 15.736 38.4722C14.3876 36.9602 13.8751 34.0202 15.1309 32.5922C15.4657 32.1722 16.2205 31.7522 17.0602 31.6682C16.974 30.9122 16.8878 30.1562 16.8854 29.3162C16.8668 22.9323 21.3891 18.2283 27.6891 18.2283C28.3611 18.2283 28.9508 18.8163 28.9528 19.4883C28.9547 20.1603 28.3684 20.7483 27.6964 20.7483C22.7404 20.7483 19.3907 24.2762 19.4054 29.3162C19.4088 30.4922 19.5797 31.5002 19.9201 33.0122C20.0056 33.5162 19.7551 34.0202 19.3361 34.3562C18.9168 34.6082 18.3288 34.6082 17.9078 34.2722C17.6553 34.1042 17.2356 34.1882 17.0678 34.2722C16.901 34.6922 17.0729 36.0362 17.7472 36.7922C18.1684 37.2122 19.1759 37.0442 19.4276 36.9602C19.6794 36.8762 20.0154 36.8762 20.2676 36.9602C20.7721 37.1282 21.1098 37.7162 21.1113 38.2202C21.1118 38.3882 20.8686 41.4122 23.5644 44.1002C23.8172 44.3522 23.9021 44.6882 23.9031 45.0242L23.9102 47.4601C23.9117 47.9641 23.5769 48.3841 23.1576 48.6361L15.7747 51.7441C14.0126 52.4161 12.6728 53.8441 12.2577 55.5241H38.5497C39.2217 55.5241 39.8114 56.1121 39.8134 56.7841C39.8153 57.4561 39.0613 58.1281 38.3893 58.1281Z" fill="#1C1E1D"/>
<path d="M22.9219 25.3682C25.6939 25.3682 29.9779 25.3682 32.6659 25.3682C34.0099 25.3682 35.1048 26.3762 35.2765 27.6362C35.8787 32.5082 36.3024 33.7682 36.3024 33.7682H39.1584C39.1581 33.6842 39.0741 33.6842 39.0739 33.6002C38.7369 33.2642 37.8957 32.8442 36.9739 33.6002C37.3052 32.0042 37.386 30.9122 37.3821 29.5682C37.3648 23.6042 33.0695 19.7402 27.6935 19.7402C22.3175 19.7402 18.0448 23.6042 18.0621 29.5682C18.066 30.9122 18.237 31.9202 18.4939 33.6002C17.5679 32.9282 16.7289 33.2642 16.4781 33.6842C16.4784 33.7682 16.3944 33.7682 16.3946 33.8522L19.8376 33.5162C19.8376 33.5162 20.0032 32.6762 20.577 27.8042C20.7408 26.3762 21.5779 25.3682 22.9219 25.3682Z" fill="#1C1E1D"/>
<path d="M16.8096 32.1721C16.8096 32.1721 17.8975 30.7442 18.9888 30.4922C18.9888 30.4922 32.4263 29.6522 33.4145 22.8482C34.5692 15.5402 25.4171 16.8842 22.8991 17.5562C20.633 18.2282 13.5854 21.0842 16.8096 32.1721Z" fill="#1C1E1D"/>
<path d="M32.4102 24.1082C32.4102 24.1082 32.2479 26.0402 35.7888 30.4922L37.894 32.2562C37.894 32.2562 41.6444 22.0923 32.985 19.5723L32.4102 24.1082Z" fill="#1C1E1D"/>
<path d="M43.4063 50.232L52.0499 47.376L51.2842 44.016C49.4318 42.504 49.0899 40.488 48.2421 37.8C47.488 38.472 46.3113 38.22 45.3841 37.128C44.3727 35.952 44.1158 34.272 44.7851 33.348C45.2869 32.592 46.2949 32.592 47.2206 33.18C46.964 31.584 47.1276 30.0721 47.1236 28.7281C47.1063 22.7641 51.1278 19.1521 56.4198 19.1521C61.7118 19.1521 65.7543 22.7641 65.7716 28.7281C65.7756 30.0721 65.864 31.584 65.6168 33.264C65.7826 32.508 67.1266 32.508 67.6331 33.348C68.3078 34.272 68.0607 35.952 67.0561 37.128C66.0515 38.304 65.212 38.472 64.4533 37.548C63.8736 40.404 63.5433 42.336 61.8677 43.848L60.8697 47.292L69.194 50.148C71.8007 51.072 73.656 53.592 73.6641 56.3639H39.0561C39.0483 53.676 40.805 51.156 43.4063 50.232Z" fill="#FFB789"/>
<path opacity="0.35" d="M56.4128 45.6121C54.0608 45.6121 51.8722 44.0161 51.8722 44.0161C51.8722 44.0161 52.9762 48.1321 56.4202 48.1321C59.8642 48.1321 61.1962 44.0161 61.1962 44.0161C61.1962 44.0161 58.7648 45.6121 56.4128 45.6121Z" fill="#1C1E1D"/>
<path d="M43.4062 50.2319L51.6304 47.5439C51.9735 49.9799 53.9949 51.8279 56.5149 51.8279C59.0349 51.8279 61.0455 49.9799 61.3744 47.5439L69.1942 50.2319C71.8009 51.1559 73.6563 53.6759 73.6643 56.4479H39.0563C39.0483 53.6759 40.8049 51.1559 43.4062 50.2319Z" fill="url(#paint1_linear_46_1372)"/>
<path d="M47.4913 39.5642C46.6513 39.5642 45.7265 39.3122 44.8838 38.3882C43.5354 36.8762 43.0229 33.9362 44.2787 32.5082C44.6135 32.0882 45.1165 31.7522 45.7043 31.6682C45.6178 30.8282 45.5319 30.1562 45.5294 29.3162C45.5108 22.9323 50.0331 18.2283 56.3331 18.2283C57.0051 18.2283 57.5948 18.8163 57.5968 19.4883C57.5987 20.1603 57.0125 20.7483 56.3405 20.7483C51.3845 20.7483 48.0347 24.2762 48.0494 29.3162C48.0528 30.4922 48.2238 31.5002 48.5642 33.0122C48.6496 33.5162 48.3991 34.0202 47.9801 34.3562C47.5611 34.6922 46.9728 34.6082 46.5518 34.2722C46.3836 34.1882 46.2994 34.1042 46.2156 34.1882C45.9646 34.5242 46.1367 35.9522 46.8112 36.7922C47.2324 37.2122 47.7359 37.0442 47.9039 37.0442C48.5752 36.7922 49.2482 37.1282 49.5021 37.8002C49.7561 38.4722 49.422 39.1442 48.8348 39.3962C48.499 39.4802 47.9953 39.5642 47.4913 39.5642Z" fill="#1C1E1D"/>
<path d="M39.0613 58.128C38.3893 58.128 37.7995 57.54 37.7976 56.868C37.788 53.592 39.7955 50.652 42.8161 49.476L48.9344 44.772C49.5211 44.352 50.2774 44.436 50.6991 45.024C51.1208 45.612 51.039 46.368 50.4522 46.788L44.1664 51.66C44.0827 51.744 43.9149 51.828 43.8309 51.828C41.7331 52.584 40.227 54.6 40.2336 56.868C40.3198 57.624 39.7333 58.128 39.0613 58.128Z" fill="#1C1E1D"/>
<path d="M73.6693 58.1281H45.9493C45.2773 58.1281 44.6876 57.5401 44.6856 56.8681C44.6837 56.1961 45.27 55.6081 45.942 55.6081H72.234C71.8088 53.8441 70.5447 52.4161 68.779 51.8281L61.3779 48.7201C60.8734 48.5521 60.62 48.0481 60.6185 47.5441L60.6114 45.1081C60.6104 44.7721 60.7774 44.4361 60.9447 44.1841C63.6249 41.4962 63.3638 38.3882 63.3636 38.3042C63.2779 37.7162 63.6124 37.2122 64.1999 37.0442C64.4517 36.9602 64.7037 36.9602 65.0399 37.0442C65.2922 37.1282 66.3006 37.2962 66.7194 36.8762C67.3892 36.1202 67.5533 34.7762 67.3841 34.3562C67.2158 34.2722 66.7116 34.1882 66.5441 34.3562C66.1251 34.6922 65.5371 34.6922 65.1163 34.4402C64.6956 34.1882 64.4421 33.6842 64.5244 33.0962C64.8558 31.5002 65.0211 30.5762 65.0177 29.4002C65.003 24.3602 61.5487 20.8322 56.6767 20.8322C56.0047 20.8322 55.415 20.2442 55.413 19.5723C55.4111 18.9003 55.9974 18.3123 56.6694 18.3123C62.9694 18.3123 67.5188 22.9322 67.5377 29.4002C67.5401 30.2402 67.4583 30.9962 67.3765 31.7522C68.2167 31.8362 68.9737 32.1722 69.3112 32.6762C70.5756 34.1882 69.9959 37.0442 68.7403 38.5562C67.9868 39.3962 66.9795 39.6482 66.0557 39.7322C65.8921 41.2442 65.311 43.5961 63.3011 45.6961L63.3043 46.7881L69.9484 49.5601C73.0595 50.6521 75.1681 53.5921 75.1779 56.9521C74.9278 57.6241 74.3413 58.1281 73.6693 58.1281Z" fill="#1C1E1D"/>
<path d="M61.3906 24.2762C58.6186 24.2762 54.2541 25.4522 51.4821 25.4522C50.1381 25.4522 49.049 26.4602 48.8847 27.7202C48.3109 32.5922 47.8945 33.8522 47.8945 33.8522H45.0385C45.0383 33.7682 45.1223 33.7682 45.122 33.6842C45.4571 33.3482 46.2118 32.9282 47.1378 33.6002C46.7971 32.0042 46.71 30.9122 46.7061 29.5682C46.6887 23.6042 50.9614 19.7402 56.3374 19.7402C61.7134 19.7402 66.0087 23.6042 66.0261 29.5682C66.03 30.9122 65.8649 31.9202 65.6178 33.6002C66.5398 32.9282 67.3808 33.2642 67.634 33.6842C67.6343 33.7682 67.7183 33.7682 67.7185 33.8522L64.2733 33.4322C64.2733 33.4322 64.0191 32.6762 63.4167 27.7202C63.3288 26.3762 62.7346 24.2762 61.3906 24.2762Z" fill="#1C1E1D"/>
<path d="M46.2097 32.1721C46.2097 32.1721 47.2976 30.7442 48.3888 30.4922C48.3888 30.4922 61.8264 29.6522 62.8146 22.8482C63.9693 15.5402 54.8172 16.8842 52.2992 17.5562C50.1171 18.2282 43.0694 21.0842 46.2097 32.1721Z" fill="#1C1E1D"/>
<path d="M61.8942 24.1082C61.8942 24.1082 61.7319 26.0402 65.2728 30.4922L67.378 32.2562C67.378 32.2562 71.1284 22.0923 62.469 19.5723L61.8942 24.1082Z" fill="#1C1E1D"/>
<path d="M55.2801 60.48L47.0403 57.792L46.8622 54.348C48.7058 52.836 49.455 50.484 50.2872 47.7961C51.0463 48.888 51.8854 48.5521 52.5539 47.3761C53.306 46.0321 53.6366 44.1841 52.9622 43.3441C52.372 42.5881 51.7845 42.7561 51.3664 43.4281C51.6138 41.8321 51.4414 40.3201 51.4377 39.0601C51.4204 33.0961 47.3778 29.4841 42.0858 29.4841C36.7938 29.4841 32.7724 33.0961 32.7897 39.0601C32.7936 40.4041 32.714 41.9161 32.9709 43.5961C32.8007 42.8401 31.96 42.5881 31.3742 43.3441C30.7049 44.2681 30.9623 46.1161 31.7219 47.3761C32.3974 48.5521 33.4058 48.7201 34.0752 47.7961C34.6715 50.652 35.7696 52.752 37.37 54.264L37.2968 57.96L29.0721 60.48C26.4708 61.404 25.0501 63.924 25.0582 66.696H59.3302C59.2381 63.924 57.8868 61.404 55.2801 60.48Z" fill="#FFD8BF"/>
<path opacity="0.35" d="M42.2463 55.6919C44.5983 55.6919 46.7786 54.4319 46.7786 54.4319C46.7786 54.4319 45.6961 57.7079 42.2521 57.7079C38.8081 57.7079 37.4546 54.4319 37.4546 54.4319C37.4546 54.4319 39.8943 55.6919 42.2463 55.6919Z" fill="#1C1E1D"/>
<path d="M55.2802 60.48L47.0404 57.792C46.7114 60.228 44.7008 62.076 42.1808 62.076C39.6608 62.076 37.6394 60.228 37.2964 57.792L29.0722 60.48C26.4709 61.404 25.0502 63.924 25.0583 66.696H59.3303C59.2382 63.924 57.8869 61.404 55.2802 60.48Z" fill="url(#paint2_linear_46_1372)"/>
<path d="M59.4187 68.2079H24.9787C24.3067 68.2079 23.717 67.6199 23.715 66.9479C23.7057 63.7559 25.5454 60.8999 28.649 59.3879L36.1978 55.5239L37.3804 57.7919L29.8316 61.6559C28.0701 62.4959 26.8985 64.0079 26.4834 65.6879H58.1514C57.8097 63.7559 56.6296 62.3279 55.0319 61.7399C54.9479 61.7399 54.9479 61.7399 54.8636 61.6559L47.1244 57.7919L48.2938 55.5239L55.949 59.3879C58.8922 60.4799 60.8328 63.4199 60.843 66.9479C60.6772 67.7039 60.0907 68.2079 59.4187 68.2079Z" fill="#1C1E1D"/>
<path d="M37.23 35.0281C39.918 35.0281 44.286 35.0281 46.974 35.0281C48.318 35.0281 48.9095 36.2041 48.9976 37.6321C49.5993 42.3361 49.8552 43.6801 49.8552 43.6801C49.8552 43.6801 51.1138 43.1761 51.282 43.2601C51.6134 41.6641 51.6942 40.5721 51.6903 39.2281C51.6729 33.2641 47.3776 29.4001 42.0856 29.4001C36.7936 29.4001 32.5209 33.2641 32.5383 39.2281C32.5422 40.5721 32.7986 42.0841 33.0552 43.6801C33.7253 43.0081 34.3992 43.6801 34.3992 43.6801C34.3992 43.6801 34.7311 42.2521 35.2209 37.3801C35.469 36.0361 35.886 35.0281 37.23 35.0281Z" fill="#1C1E1D"/>
<path d="M32.9712 43.68C32.9712 43.68 33.3831 40.908 33.7172 40.236C33.7172 40.236 46.8187 39.396 47.8074 32.76C48.8784 25.536 40.0623 26.88 37.5442 27.552C35.3622 28.224 28.7394 32.76 32.9712 43.68Z" fill="#1C1E1D"/>
<path d="M46.8039 34.272C46.8039 34.272 46.3077 36.96 50.1002 41.244L51.3673 43.68C51.3673 43.68 56.542 32.256 47.4631 29.9041L46.8039 34.272Z" fill="#1C1E1D"/>
<path d="M33.7292 44.3521C34.1467 44.3521 34.4842 44.0136 34.483 43.5961C34.4817 43.1786 34.1423 42.8401 33.7248 42.8401C33.3072 42.8401 32.9697 43.1786 32.971 43.5961C32.9722 44.0136 33.3116 44.3521 33.7292 44.3521Z" fill="#1C1E1D"/>
<path d="M50.6972 44.3521C51.1147 44.3521 51.4522 44.0136 51.451 43.5961C51.4498 43.1786 51.1103 42.8401 50.6928 42.8401C50.2752 42.8401 49.9378 43.1786 49.939 43.5961C49.9402 44.0136 50.2796 44.3521 50.6972 44.3521Z" fill="#1C1E1D"/>
<path d="M37.2963 57.7919L37.2943 57.1199L36.7061 57.0359L36.7078 57.6239L37.2963 57.7919Z" fill="#1C1E1D"/>
<path d="M47.0388 57.2881L47.0403 57.7921L47.4586 57.2041L47.0388 57.2881Z" fill="#1C1E1D"/>
<defs>
<linearGradient id="paint0_linear_46_1372" x1="10.6514" y1="51.9959" x2="45.2591" y2="51.8951" gradientUnits="userSpaceOnUse">
<stop stop-color="#55D6FF"/>
<stop offset="0.515625" stop-color="#6D55FE"/>
<stop offset="1" stop-color="#E558A0"/>
</linearGradient>
<linearGradient id="paint1_linear_46_1372" x1="39.0434" y1="51.9959" x2="73.6511" y2="51.8951" gradientUnits="userSpaceOnUse">
<stop stop-color="#55D6FF"/>
<stop offset="0.515625" stop-color="#6D55FE"/>
<stop offset="1" stop-color="#E558A0"/>
</linearGradient>
<linearGradient id="paint2_linear_46_1372" x1="25.0453" y1="62.244" x2="59.317" y2="62.1442" gradientUnits="userSpaceOnUse">
<stop stop-color="#55D6FF"/>
<stop offset="0.515625" stop-color="#6D55FE"/>
<stop offset="1" stop-color="#E558A0"/>
</linearGradient>
</defs>
</svg>
