<svg width="84" height="84" viewBox="0 0 84 84" fill="none" xmlns="http://www.w3.org/2000/svg">
<path opacity="0.35" d="M14.7 78.1199C11.6894 78.1199 9.23999 75.6704 9.23999 72.6599L9.23915 40.0838C7.26767 39.2598 5.87915 39.647 5.87915 37.3799V25.6199C5.87915 22.6093 8.32859 20.1599 11.3392 20.1599H23.3755C22.9135 18.7075 22.68 17.1334 22.68 15.4508C22.68 9.25248 27.7225 4.20996 33.9209 4.20996C39.2532 4.20996 41.8832 7.8228 43.68 10.751C45.4768 7.82364 48.9476 4.20996 54.2791 4.20996C60.4775 4.20912 65.52 9.25248 65.52 15.4508C65.52 17.1334 65.2856 18.7075 64.8245 20.1599H76.02C79.0306 20.1599 81.48 22.6093 81.48 25.6199V37.3799C81.48 39.647 80.0915 41.5958 78.12 42.4199V72.6599C78.12 75.6704 75.6706 78.1199 72.66 78.1199H14.7Z" fill="black"/>
<path d="M13.0201 76.4399C10.0095 76.4399 7.56006 73.9905 7.56006 70.9799V40.7399C5.58858 39.9159 4.19922 37.9671 4.19922 35.6999V23.9399C4.19922 20.9294 6.64866 18.4799 9.65922 18.4799H21.6956C21.2336 17.0276 21.0001 15.4534 21.0001 13.7709C21.0001 7.57255 26.0426 2.53003 32.2409 2.53003C37.5733 2.53003 40.6233 4.92403 42.4201 7.85143C44.2168 4.92403 47.2677 2.53003 52.5992 2.53003C58.7975 2.52919 63.8401 7.57255 63.8401 13.7709C63.8401 15.4534 63.6057 17.0276 63.1445 18.4799H74.3401C77.3506 18.4799 79.8001 20.9294 79.8001 23.9399V35.6999C79.8001 37.9671 78.4115 39.9159 76.4401 40.7399V70.9799C76.4401 73.9905 73.9906 76.4399 70.9801 76.4399H13.0201Z" fill="#F2F2F2"/>
<path d="M70.98 34.4399H13.02V70.9799H70.98V34.4399Z" fill="url(#paint0_linear_46_1412)"/>
<path d="M74.34 23.9399H9.65918V34.4399H74.34V23.9399Z" fill="url(#paint1_linear_46_1412)"/>
<path d="M74.34 23.9399H9.65918V34.4399H74.34V23.9399Z" fill="black" fill-opacity="0.2"/>
<path d="M47.46 23.9399H36.54V70.9799H47.46V23.9399Z" fill="white" fill-opacity="0.5"/>
<path d="M41.8765 23.9399C36.0948 23.9399 26.46 22.4422 26.46 13.7709C26.46 10.578 29.048 7.98999 32.2408 7.98999C40.74 7.98915 38.0217 20.086 41.8765 23.9399Z" stroke="#1C1E1D" stroke-width="3" stroke-miterlimit="10" stroke-linecap="round" stroke-linejoin="round"/>
<path d="M42.9634 23.9399C48.7443 23.9399 58.3799 22.4422 58.3799 13.7709C58.3799 10.578 55.7919 7.98999 52.599 7.98999C44.0999 7.98915 46.8173 20.086 42.9634 23.9399Z" stroke="#1C1E1D" stroke-width="3" stroke-miterlimit="10" stroke-linecap="round" stroke-linejoin="round"/>
<path opacity="0.35" d="M73.0801 34.4399H12.6001V36.9599H73.0801V34.4399Z" fill="#1C1E1D"/>
<path d="M47.46 23.9399H36.54H9.65918V35.6999H13.02V70.9799H36.54H47.46H70.98V35.6999H74.34V23.9399H47.46Z" stroke="#1C1E1D" stroke-width="3" stroke-miterlimit="10" stroke-linecap="round" stroke-linejoin="round"/>
<defs>
<linearGradient id="paint0_linear_46_1412" x1="13.02" y1="52.7099" x2="70.98" y2="52.7099" gradientUnits="userSpaceOnUse">
<stop stop-color="#55D6FF"/>
<stop offset="0.515625" stop-color="#6D55FE"/>
<stop offset="1" stop-color="#E558A0"/>
</linearGradient>
<linearGradient id="paint1_linear_46_1412" x1="9.65918" y1="29.1899" x2="74.34" y2="29.1899" gradientUnits="userSpaceOnUse">
<stop stop-color="#55D6FF"/>
<stop offset="0.515625" stop-color="#6D55FE"/>
<stop offset="1" stop-color="#E558A0"/>
</linearGradient>
</defs>
</svg>
