<svg width="84" height="84" viewBox="0 0 84 84" fill="none" xmlns="http://www.w3.org/2000/svg">
<path opacity="0.35" d="M74.9616 68.8548L53.0964 79.59C51.0552 80.5728 48.7788 81.0936 46.5108 81.0936C44.5368 81.0936 42.6048 80.7156 40.74 79.9512L25.074 73.3404L13.4736 75.1464C13.2048 75.1884 12.9276 75.2052 12.6588 75.2052C11.3568 75.2052 10.0968 74.7432 9.10563 73.8948C7.88763 72.8532 7.19043 71.3412 7.19043 69.7452V54.6252C7.19043 52.0464 9.02163 49.7952 11.55 49.2828L21.3696 47.2416C19.5468 46.3596 18.48 44.604 18.48 42.42V17.1192C18.48 15.6576 19.0512 14.2884 20.0928 13.2468C20.16 13.1796 20.2272 13.1124 20.3028 13.0452C20.6808 11.4408 21.7728 10.0548 23.2932 9.34083C26.67 7.75323 30.66 6.92163 34.8348 6.92163C38.178 6.92163 41.4876 7.45923 44.5032 8.48403C47.3676 7.49283 50.568 6.98043 53.844 6.98043C58.0524 6.98043 62.1432 7.82043 65.6712 9.42483C67.2336 10.1304 68.3508 11.5248 68.7372 13.1544C69.8544 14.154 70.56 15.6072 70.56 17.22V42.42C70.56 45.4104 68.124 47.8632 65.1336 47.88C65.1336 47.88 62.3364 47.8968 58.2036 47.9136L54.474 47.9304H53.0964C52.626 48.5352 52.0884 49.0812 51.5004 49.5684C51.6432 49.5516 51.7776 49.5516 51.912 49.5516C55.4988 49.5516 58.4808 51.072 60.228 53.6508L68.124 51.3156C69.006 51.0468 69.9216 50.9124 70.8372 50.9124C72.66 50.9124 74.4408 51.4416 75.9696 52.4412C78.3048 53.9532 79.842 56.3976 80.1948 59.1528C80.7156 63.1932 78.5988 67.0992 74.9616 68.8548Z" fill="black"/>
<path d="M73.2817 67.1749L51.4165 77.9101C49.3753 78.8929 47.0989 79.4137 44.8309 79.4137C42.8569 79.4137 40.9249 79.0357 39.0601 78.2713L23.3941 71.6605L11.7937 73.4665C11.5249 73.5085 11.2477 73.5253 10.9789 73.5253C9.6769 73.5253 8.4169 73.0633 7.4257 72.2149C6.2077 71.1733 5.5105 69.6613 5.5105 68.0653V52.9453C5.5105 50.3665 7.3417 48.1153 9.8701 47.6029L19.6897 45.5617C17.8669 44.6797 16.8001 42.9241 16.8001 40.7401V15.4393C16.8001 13.9777 17.3713 12.6085 18.4129 11.5669C18.4801 11.4997 18.5473 11.4325 18.6229 11.3653C19.0009 9.7609 20.0929 8.3749 21.6133 7.6609C24.9901 6.0733 28.9801 5.2417 33.1549 5.2417C36.4981 5.2417 39.8077 5.7793 42.8233 6.8041C45.6877 5.8129 48.8881 5.3005 52.1641 5.3005C56.3725 5.3005 60.4633 6.1405 63.9913 7.7449C65.5537 8.4505 66.6709 9.8449 67.0573 11.4745C68.1745 12.4741 68.8801 13.9273 68.8801 15.5401V40.7401C68.8801 43.7305 66.4441 46.1833 63.4537 46.2001C63.4537 46.2001 60.6565 46.2169 56.5237 46.2337L52.7941 46.2505H51.4165C50.9461 46.8553 50.4085 47.4013 49.8205 47.8885C49.9633 47.8717 50.0977 47.8717 50.2321 47.8717C53.8189 47.8717 56.8009 49.3921 58.5481 51.9709L66.4441 49.6357C67.3261 49.3669 68.2417 49.2325 69.1573 49.2325C70.9801 49.2325 72.7609 49.7617 74.2897 50.7613C76.6249 52.2733 78.1621 54.7177 78.5149 57.4729C79.0357 61.5133 76.9189 65.4193 73.2817 67.1749Z" fill="#F2F2F2"/>
<path d="M35.5076 61.6544L43.6439 63.8241C44.3041 64.0005 45.0021 63.9711 45.6456 63.7401L52.2396 61.3722C53.6877 60.8522 54.6529 59.4796 54.6529 57.9408C54.6529 55.7391 52.7159 54.0398 50.5327 54.3262L44.0529 54.5404L32.303 50.4085C30.2786 49.5979 28.0602 49.4038 25.9257 49.8516L10.9729 52.9453V68.0653L22.6296 66.2534C23.5519 66.1014 24.4977 66.2089 25.3629 66.5634L41.1675 73.233C43.7043 74.2737 46.5637 74.188 49.0341 72.9969L70.8817 62.2676C72.4265 61.5225 73.3211 59.8736 73.1027 58.1726C72.7893 55.7332 70.3626 54.1582 68.0072 54.8647L54.6529 58.8253" fill="#FFB789"/>
<path d="M44.8333 75.2144C43.4255 75.2144 42.0168 74.9431 40.6887 74.3979L24.8724 67.7241C24.2348 67.462 23.525 67.3831 22.8337 67.4965L11.1661 69.31C10.8024 69.3646 10.4319 69.2605 10.1531 69.0219C9.87333 68.7825 9.71289 68.4331 9.71289 68.0643V52.9443C9.71289 52.3471 10.1329 51.8313 10.7175 51.7103L25.6704 48.6158C28.0409 48.1193 30.4811 48.3293 32.7314 49.2206L42.9038 52.5159L49.0778 52.148C52.4622 51.7145 55.0359 53.1635 55.8012 55.9263C55.9087 56.3161 55.9734 56.7134 55.9944 57.1124L67.6494 53.6558C69.1244 53.2148 70.7129 53.4407 72.0073 54.2807C73.3017 55.1207 74.1569 56.4799 74.3526 58.0103C74.6407 60.2531 73.4655 62.4195 71.4294 63.4015L49.5894 74.1283C48.09 74.8507 46.4621 75.2144 44.8333 75.2144ZM23.4486 64.9261C24.2634 64.9261 25.0765 65.084 25.8409 65.3981L41.6573 72.0719C43.8488 72.9716 46.3436 72.896 48.4873 71.8619L70.3265 61.136C71.3924 60.6227 72.0031 59.4971 71.8527 58.3329C71.7503 57.5374 71.3067 56.8318 70.6347 56.395C69.9627 55.9582 69.1378 55.8415 68.3692 56.0708L55.0107 60.0331C54.8419 60.0826 54.6714 60.0952 54.5093 60.0767C54.5084 60.0767 54.5076 60.0767 54.5067 60.0767C54.3723 60.0767 54.2363 60.0557 54.1019 60.0104C53.4433 59.7861 53.0897 59.0713 53.3139 58.4127C53.5155 57.8171 53.5365 57.1905 53.3727 56.6C52.7965 54.5218 50.6117 54.4891 49.3609 54.6537C49.3307 54.6579 49.3013 54.6604 49.2719 54.6621L42.8173 55.0477C42.6611 55.0586 42.5031 55.0376 42.3536 54.9889L31.9149 51.6079C31.8881 51.5995 31.8612 51.5902 31.8351 51.5793C30.0359 50.8594 28.0812 50.6889 26.1845 51.0854L12.2337 53.9733V66.596L22.4364 65.0092C22.7707 64.9529 23.1101 64.9261 23.4486 64.9261Z" fill="#1C1E1D"/>
<path d="M50.022 55.9062C49.6549 55.9062 49.3172 56.0272 49.0409 56.2271C49.0182 56.6312 49.0333 57.1444 49.1518 57.7517C49.2576 58.2952 49.4819 58.8093 49.7213 59.2411C49.8196 59.2587 49.9195 59.2713 50.0228 59.2713C50.9519 59.2713 51.7054 58.5178 51.7054 57.5888C51.7054 56.6597 50.951 55.9062 50.022 55.9062Z" fill="#FFE8D9"/>
<path opacity="0.35" d="M44.6023 64.286C43.9983 64.286 43.3994 64.212 42.8198 64.065L34.9775 61.7198C34.9775 61.7198 42.6165 62.2582 45.6069 61.6635L51.8657 60.1666C52.6562 59.8365 53.8549 58.3413 53.3719 56.5991C53.1862 55.928 53.5793 55.2341 54.2497 55.0485C54.9183 54.862 55.6147 55.256 55.8003 55.9263C56.6176 58.8772 54.8032 61.7895 52.6646 62.5589C52.6209 62.5749 52.5764 62.5875 52.531 62.5984L46.1613 64.1213C45.6447 64.2314 45.1214 64.286 44.6023 64.286Z" fill="#1C1E1D"/>
<path d="M62.9999 15.96H22.6799V41.16H62.9999V15.96Z" fill="#2B59A1"/>
<path d="M42.8399 43.68C40.5207 43.68 38.6399 41.7993 38.6399 39.48C38.6399 37.1608 40.5207 35.28 42.8399 35.28C45.1591 35.28 47.0399 37.1608 47.0399 39.48C47.0399 41.7993 45.1591 43.68 42.8399 43.68Z" fill="#2B59A1"/>
<path d="M42.84 38.6401C40.9449 37.8908 37.7076 36.8879 33.6 36.9601C29.9275 37.0248 27.0152 37.9219 25.2 38.6401C25.2 29.6798 25.2 20.7204 25.2 11.7601C27.0152 11.0419 29.9275 10.1448 33.6 10.0801C37.7076 10.0079 40.9449 11.0108 42.84 11.7601C42.84 20.7204 42.84 29.6798 42.84 38.6401Z" fill="url(#paint0_linear_46_1425)"/>
<path d="M60.4799 38.6401C58.5849 37.8908 55.3475 36.8879 51.24 36.9601C47.5675 37.0248 44.6552 37.9219 42.84 38.6401C42.84 29.6798 42.84 20.7204 42.84 11.7601C44.6552 11.0419 47.5675 10.1448 51.24 10.0801C55.3475 10.0079 58.5849 11.0108 60.4799 11.7601C60.4799 20.7204 60.4799 29.6798 60.4799 38.6401Z" fill="url(#paint1_linear_46_1425)"/>
<path d="M42.84 46.1999C40.084 46.1999 37.658 44.5392 36.6324 42.0579C34.9684 42.0722 33.18 42.0848 31.5638 42.0923C30.529 42.0747 29.5747 42.0923 28.6726 42.0831C26.7498 42.0789 25.1387 42.0705 24.0114 42.057C21.882 42.0318 21 42.0209 21 40.7399V15.4391C21 15.104 21.1336 14.7831 21.3713 14.5462C21.6073 14.3118 21.9274 14.1791 22.26 14.1791C22.2617 14.1791 22.2642 14.1791 22.2659 14.1791L22.68 14.1808V12.5999C22.68 12.1119 22.9622 11.6675 23.4041 11.46C29.027 8.81656 36.7592 8.767 42.8316 11.2996C48.6478 8.809 56.3749 8.90224 62.26 11.5701C62.711 11.7742 63 12.2228 63 12.7175V14.2774L63.4259 14.2799C64.1197 14.2833 64.68 14.8469 64.68 15.5399V40.7399C64.68 41.4329 64.1206 41.9957 63.4276 41.9999C63.4276 41.9999 60.6379 42.0167 56.5034 42.0335L52.7864 42.0495C51.5903 42.0528 50.3345 42.0562 49.0434 42.0629C48.0211 44.5409 45.5952 46.1999 42.84 46.1999ZM37.5396 39.5312C38.1184 39.5312 38.624 39.9268 38.7635 40.4896C39.2263 42.3678 40.903 43.6799 42.84 43.6799C44.7737 43.6799 46.4461 42.3737 46.909 40.5047C47.0476 39.9453 47.5474 39.5505 48.1244 39.5471C49.7364 39.537 51.3038 39.5328 52.7806 39.5295L56.4984 39.5135C58.9697 39.5026 60.9605 39.4934 62.16 39.4866V16.794L61.7341 16.7915C61.0403 16.7882 60.48 16.2245 60.48 15.5315V13.5483C55.1485 11.4038 48.3798 11.4911 43.3709 13.8179C43.0382 13.9716 42.6569 13.975 42.3234 13.8246C37.1482 11.5004 30.2358 11.3601 25.1992 13.4223V15.4467C25.1992 15.7818 25.0656 16.1027 24.8279 16.3396C24.5918 16.574 24.2718 16.7067 23.9392 16.7067C23.9375 16.7067 23.935 16.7067 23.9333 16.7067L23.52 16.7058V39.5312C24.3877 39.5446 25.935 39.558 28.6885 39.5639C29.5932 39.5732 30.5466 39.5732 31.5588 39.5732C33.4664 39.5639 35.6236 39.548 37.5287 39.5312C37.532 39.5312 37.5362 39.5312 37.5396 39.5312Z" fill="#1C1E1D"/>
<defs>
<linearGradient id="paint0_linear_46_1425" x1="25.2" y1="24.3583" x2="60.4799" y2="24.3583" gradientUnits="userSpaceOnUse">
<stop stop-color="#55D6FF"/>
<stop offset="0.515625" stop-color="#6D55FE"/>
<stop offset="1" stop-color="#E558A0"/>
</linearGradient>
<linearGradient id="paint1_linear_46_1425" x1="25.2" y1="24.3583" x2="60.4799" y2="24.3583" gradientUnits="userSpaceOnUse">
<stop stop-color="#55D6FF"/>
<stop offset="0.515625" stop-color="#6D55FE"/>
<stop offset="1" stop-color="#E558A0"/>
</linearGradient>
</defs>
</svg>
