<svg width="24" height="56" viewBox="0 0 24 56" fill="none" xmlns="http://www.w3.org/2000/svg">
<path fill-rule="evenodd" clip-rule="evenodd" d="M12 7.24178L9.53501 21.1302C9.38599 21.9699 8.96728 22.7205 8.35704 23.2421L2.79001 28L8.35704 32.7579C8.96728 33.2795 9.38599 34.0301 9.53501 34.8698L12 48.7582L14.465 34.8698C14.614 34.0301 15.0327 33.2795 15.643 32.7579L21.21 28L15.643 23.2421C15.0327 22.7205 14.614 21.9699 14.465 21.1302L12 7.24178ZM13.0364 0.947273C12.8123 -0.315755 11.1877 -0.315759 10.9636 0.947268L7.46214 20.6753C7.41246 20.9552 7.27289 21.2054 7.06948 21.3793L0.412649 27.0686C-0.137549 27.5388 -0.13755 28.4612 0.412649 28.9314L7.06948 34.6207C7.27289 34.7946 7.41246 35.0448 7.46214 35.3247L10.9636 55.0527C11.1877 56.3158 12.8123 56.3158 13.0364 55.0527L16.5379 35.3247C16.5875 35.0448 16.7271 34.7946 16.9305 34.6207L23.5873 28.9314C24.1375 28.4612 24.1375 27.5388 23.5873 27.0686L16.9305 21.3793C16.7271 21.2054 16.5875 20.9552 16.5379 20.6753L13.0364 0.947273Z" fill="white"/>
</svg>
