<svg width="265" height="276" viewBox="0 0 265 276" fill="none" xmlns="http://www.w3.org/2000/svg">
<g clip-path="url(#clip0_46_211)">
<g clip-path="url(#clip1_46_211)">
<path opacity="0.35" d="M81.4793 127.128C75.5639 126.262 71.4898 120.749 72.3477 114.773C72.8005 111.619 73.9106 108.561 75.4659 105.907L56.4051 103.114C50.4897 102.247 46.4156 96.735 47.2736 90.7586C48.7034 80.798 56.2343 72.7484 65.9365 70.6105L70.8234 69.2925C70.4972 68.0582 70.3116 67.014 70.1259 65.9698C68.6019 64.8989 67.5784 60.3419 66.6188 58.8453C62.4995 52.4787 61.5763 44.8853 68.0925 39.2295L68.2806 39.0876C68.5326 19.8013 80.8312 11.2638 92.2694 9.88871C93.4673 9.72523 98.0468 9.37923 103.305 10.1497C112.178 11.4498 116.655 15.3263 118.831 18.8657C124.225 22.1985 127.165 30.9349 128.515 36.7263C133.019 27.5551 142.1 19.2242 149.945 18.3396C151.143 18.1761 155.722 17.8301 160.98 18.6005C169.853 19.9007 174.33 23.7771 176.506 27.3166C181.126 30.197 184.429 34.0709 186.086 38.8903C188.374 45.1581 187.609 51.6566 186.26 56.3745L186.401 56.5646C191.034 64.0236 187.609 73.8613 181.845 78.9494C180.316 80.2508 178.67 81.1962 176.908 81.7855C176.436 82.7334 175.941 83.8473 175.305 84.7711L179.784 87.4615C188.486 92.296 193.302 101.985 191.849 112.112C190.991 118.088 185.534 122.204 179.619 121.338L160.723 118.569C161.303 121.535 161.508 124.786 161.055 127.94C160.197 133.916 154.741 138.033 148.825 137.166L81.4555 127.294L81.4793 127.128Z" fill="black"/>
<path d="M78.6695 123.327C72.7541 122.46 68.68 116.947 69.5379 110.971C69.9907 107.817 71.1007 104.759 72.6561 102.105L53.5953 99.3125C47.6799 98.4458 43.6058 92.9333 44.4637 86.9569C45.8936 76.9963 53.4245 68.9467 63.1267 66.8088L68.0136 65.4908C67.6874 64.2565 67.5018 63.2123 67.3161 62.1681C65.7921 61.0972 64.3158 59.6944 63.38 58.0318C59.2608 51.6652 58.7665 41.0836 65.3065 35.2618L65.4946 35.1199C65.7228 15.9996 78.0214 7.46207 89.4596 6.08701C90.6575 5.92353 95.237 5.57754 100.495 6.34798C109.368 7.64811 113.845 11.5246 116.021 15.064C121.415 18.3968 124.927 23.149 126.277 28.9403C130.781 19.7692 139.29 15.4225 146.971 14.5138C148.168 14.3503 152.748 14.0043 158.006 14.7748C166.879 16.0749 171.356 19.9514 173.532 23.4908C178.152 26.3712 181.455 30.2452 183.112 35.0645C185.399 41.3323 184.634 47.8308 183.286 52.5488L183.427 52.7388C188.06 60.1978 184.635 70.0355 178.871 75.1236C177.342 76.4251 175.696 77.3704 173.934 77.9597C173.462 78.9076 172.967 80.0215 172.331 80.9454L176.81 83.6357C185.511 88.4702 190.328 98.1596 188.874 108.286C188.017 114.263 182.56 118.379 176.645 117.512L157.913 114.767C158.494 117.734 158.698 120.984 158.245 124.138C157.387 130.115 151.931 134.231 146.016 133.364L78.6457 123.493L78.6695 123.327Z" fill="white"/>
<path d="M150.385 43.3209L137.345 35.9861C135.997 40.7041 128.871 45.9316 123.941 45.2093C119.012 44.487 114.331 37.36 114.341 32.6154L99.9396 35.9294C94.5837 37.0091 90.2537 41.4597 89.4673 46.9381L157.166 56.8576C157.952 51.3792 155.217 45.8933 150.385 43.3209Z" fill="#96C362"/>
<path d="M116.181 84.0746L100.067 75.9504L102.499 69.5267C106.543 67.0682 107.772 63.1803 110.178 58.1087C111.466 59.6535 113.838 59.4925 115.955 57.5992C118.261 55.564 119.23 52.316 118.178 50.2973C117.406 48.6588 115.435 48.3699 113.46 49.2671C114.406 46.1851 114.506 43.1488 114.888 40.4926C116.532 29.038 109.669 20.7439 99.3175 19.227C88.9656 17.7102 80.0536 23.693 78.3616 35.4797C77.9803 38.1358 77.387 41.0999 77.4034 44.4924C77.2892 42.9501 74.6602 42.5649 73.4359 44.0805C71.8593 45.714 71.8756 49.1065 73.5138 51.7195C75.1519 54.3326 76.7474 54.9054 78.4884 53.2959C78.8284 59.1088 78.9376 63.0233 81.7949 66.4931L82.7897 73.5884L65.712 76.8491C60.3561 77.9289 56.0262 82.3795 55.2398 87.8578L122.938 97.7773C123.749 92.133 121.013 86.6471 116.181 84.0746Z" fill="#D47F56"/>
<path opacity="0.35" d="M92.0227 71.2122C96.6235 71.8864 101.349 69.3582 101.349 69.3582C101.349 69.3582 98.0447 77.1796 91.3077 76.1925C84.5707 75.2054 83.1094 66.6857 83.1094 66.6857C83.1094 66.6857 87.4218 70.5381 92.0227 71.2122Z" fill="#1C1E1D"/>
<path d="M116.181 84.0746L100.841 76.4028C99.4922 81.1208 95.0243 84.1952 90.0948 83.4729C85.1653 82.7506 81.746 78.5205 81.7798 73.61L65.7358 76.6832C60.3798 77.7629 56.0499 82.2135 55.2635 87.6918L122.962 97.6114C123.748 92.133 121.013 86.6471 116.181 84.0746Z" fill="url(#paint0_linear_46_211)"/>
<path d="M111.156 61.8116C110.17 61.6672 109.208 61.3567 108.763 60.9525C107.52 60.2618 107.241 58.6955 107.925 57.4397C108.608 56.1838 110.159 55.9025 111.238 56.569C111.542 56.7832 112.504 57.0937 113.281 56.3599C114.834 54.8924 115.567 52.1184 115.17 51.3821C115.029 51.1921 114.841 51.334 114.489 51.4519C113.572 51.9955 112.422 51.827 111.671 51.2086C110.921 50.5901 110.571 49.5219 110.903 48.3839C112.013 45.326 112.603 43.548 112.937 41.2239C114.367 31.2633 108.631 23.3037 99.1004 21.9073C97.7859 21.7147 96.8025 20.3841 96.9931 19.056C97.1838 17.7279 98.5008 16.7344 99.8153 16.927C112.139 18.7327 119.702 29.1634 117.867 41.9462C117.628 43.6063 117.249 45.0763 116.871 46.5463C117.997 46.8809 118.888 47.6893 119.426 48.6157C121.462 51.965 119.501 57.4408 116.607 60.0679C114.678 61.8192 112.635 62.0283 111.156 61.8116Z" fill="#1C1E1D"/>
<path d="M122.485 100.932C121.171 100.739 120.187 99.4083 120.378 98.0802C121.021 93.598 118.8 89.2044 114.742 87.0844C114.602 86.8943 114.273 86.8461 114.133 86.656L103.191 75.2217C102.16 74.2231 102.21 72.705 103.199 71.6633C104.187 70.6216 105.69 70.6723 106.721 71.6709L117.381 82.725C122.963 85.9159 126.073 92.3041 125.143 98.7785C125.093 100.297 123.8 101.124 122.485 100.932Z" fill="#1C1E1D"/>
<path d="M109.011 98.9572L54.7869 91.012C53.4724 90.8194 52.489 89.4888 52.6796 88.1607C53.6328 81.5203 58.5748 76.3119 65.1287 75.0686L78.7318 71.4683L79.0416 69.3101C75.7176 64.4161 75.2347 59.5992 75.3112 56.7289C73.5037 56.4641 71.6272 55.5111 70.3867 53.6343C68.1866 50.2609 68.0347 44.3061 70.9046 41.8451C71.681 41.1114 73.2791 40.498 74.9461 40.5728C74.9962 39.0546 75.0464 37.5364 75.2847 35.8763C77.0958 23.2596 87.3035 15.2632 99.6273 17.0689C100.942 17.2615 101.925 18.5921 101.735 19.9202C101.544 21.2483 100.227 22.2418 98.9123 22.0492C89.2176 20.6287 81.644 26.638 80.2142 36.5986C79.8806 38.9228 79.9232 40.963 80.1515 44.0475C80.1729 45.0677 79.5369 45.9915 78.62 46.5351C77.7269 46.9128 76.5767 46.7443 75.8505 45.9598C75.4052 45.5556 74.5598 45.6012 74.2073 45.7191C73.7595 46.501 73.7068 49.2053 74.8069 50.892C75.5093 51.8424 77.5288 51.7993 78.0456 51.7055C78.5624 51.6117 79.2196 51.7081 79.6887 51.9463C80.627 52.4228 81.1174 53.6811 80.9744 54.6772C80.9268 55.0092 79.5759 60.9133 84.0715 66.9961C84.4929 67.5664 84.5619 68.2545 84.4666 68.9185L83.7755 73.7328C83.6325 74.7289 82.8561 75.4626 81.963 75.8403L66.6214 79.8639C62.9801 80.6864 59.9459 83.1233 58.6477 86.3231L110.079 93.8591C111.393 94.0517 112.377 95.3823 112.186 96.7104C111.996 98.0385 110.326 99.1498 109.011 98.9572Z" fill="#1C1E1D"/>
<path d="M88.2354 29.8074C93.6579 30.6019 102.038 31.8298 107.296 32.6003C109.925 32.9855 111.775 35.2906 111.747 37.8289C111.515 47.626 111.979 50.2366 111.979 50.2366L117.565 51.0552C117.589 50.8891 117.425 50.8651 117.449 50.6991C116.887 49.9387 115.363 48.8679 113.341 50.0971C114.451 47.0393 114.925 44.9052 115.306 42.2491C116.998 30.4623 109.714 21.598 99.1982 20.0571C88.6819 18.5162 79.2055 24.9248 77.5135 36.7115C77.1322 39.3676 77.1749 41.4079 77.1912 44.8003C75.5744 43.2074 73.8359 43.6307 73.2238 44.3885C73.1999 44.5545 73.0356 44.5304 73.0118 44.6964L79.8441 45.0195C79.8441 45.0195 80.411 43.4076 82.9435 33.9475C83.6772 31.1735 85.6064 29.4222 88.2354 29.8074Z" fill="#1C1E1D"/>
<path d="M74.3102 41.4966C74.3102 41.4966 76.8514 38.9874 79.059 38.8024C79.059 38.8024 105.588 40.9946 109.49 27.8367C113.864 13.7309 95.5721 13.7627 90.4519 14.3685C85.8247 15.0465 71.2118 18.6684 74.3102 41.4966Z" fill="#1C1E1D"/>
<path d="M107.161 30.0379C107.161 30.0379 106.284 33.808 111.922 43.6177L115.53 47.7058C115.53 47.7058 125.808 28.7021 109.598 21.2419L107.161 30.0379Z" fill="#1C1E1D"/>
<path d="M121.111 84.7969L138.845 81.6325L138.32 74.7754C135.134 71.2575 135.049 67.177 134.168 61.6239C132.498 62.7353 130.269 61.9002 128.772 59.4772C127.134 56.8642 127.117 53.4717 128.694 51.8382C129.894 50.4886 131.866 50.7775 133.507 52.2044C133.467 48.978 134.224 46.038 134.606 43.3818C136.298 31.5951 145.209 25.6124 155.561 27.1292C165.913 28.646 172.776 36.9401 171.084 48.7268C170.703 51.383 170.438 54.3952 169.468 57.6432C170.012 56.1973 172.641 56.5825 173.388 58.387C174.441 60.4058 173.471 63.6537 171.166 65.6889C168.86 67.7242 167.169 67.8154 165.953 65.7726C163.992 71.2484 162.787 74.9704 159.071 77.477L156.123 83.9945L171.58 92.0224C176.411 94.5949 179.311 100.105 178.525 105.583L110.826 95.6637C111.589 90.3513 115.755 85.8767 121.111 84.7969Z" fill="#FFB789"/>
<path opacity="0.35" d="M147.89 79.3982C143.289 78.7241 139.47 74.9439 139.47 74.9439C139.47 74.9439 140.438 83.3914 147.175 84.3785C153.912 85.3657 157.709 77.6164 157.709 77.6164C157.709 77.6164 152.491 80.0724 147.89 79.3982Z" fill="#1C1E1D"/>
<path d="M121.111 84.7969L137.976 81.8441C137.942 86.7547 141.362 90.9847 146.291 91.707C151.221 92.4293 155.689 89.3549 157.037 84.637L171.556 92.1884C176.387 94.7609 179.288 100.271 178.501 105.749L110.803 95.8297C111.589 90.3513 115.755 85.8766 121.111 84.7969Z" fill="url(#paint1_linear_46_211)"/>
<path d="M132.189 64.8934C130.545 64.6527 128.809 63.8898 127.428 61.8229C125.228 58.4495 125.077 52.4947 127.946 50.0337C128.723 49.2999 129.804 48.7804 130.978 48.7829C131.052 47.0987 131.078 45.7466 131.317 44.0865C133.128 31.4697 143.336 23.4733 155.659 25.279C156.974 25.4716 157.957 26.8022 157.767 28.1303C157.576 29.4584 156.259 30.4519 154.944 30.2593C145.25 28.8388 137.676 34.8482 136.246 44.8088C135.913 47.1329 135.955 49.1732 136.184 52.2577C136.205 53.2778 135.569 54.2016 134.652 54.7453C133.735 55.2889 132.609 54.9544 131.882 54.17C131.578 53.9558 131.437 53.7657 131.249 53.9076C130.661 54.4995 130.584 57.3698 131.661 59.2225C132.363 60.1729 133.397 59.9854 133.725 60.0335C135.111 59.7281 136.33 60.5847 136.633 61.9851C136.935 63.3854 136.087 64.6171 134.865 64.9466C134.184 65.0163 133.175 65.0379 132.189 64.8934Z" fill="#1C1E1D"/>
<path d="M110.326 99.1499C109.011 98.9573 108.028 97.6267 108.219 96.2986C109.148 89.8242 113.926 84.5917 120.175 83.1343L133.505 75.5953C134.774 74.9338 136.229 75.3165 136.884 76.599C137.538 77.8814 137.16 79.3514 135.89 80.013L122.184 87.8358C121.996 87.9777 121.644 88.0956 121.479 88.0715C117.157 88.9637 113.627 92.5145 112.984 96.9968C112.934 98.515 111.641 99.3425 110.326 99.1499Z" fill="#1C1E1D"/>
<path d="M178.025 109.069L123.8 101.124C122.485 100.932 121.502 99.6009 121.693 98.2728C121.883 96.9447 123.2 95.9512 124.515 96.1438L175.946 103.68C175.625 100.073 173.565 96.8899 170.281 95.2222L156.703 86.9611C155.765 86.4846 155.415 85.4163 155.558 84.4203L156.249 79.606C156.345 78.9419 156.769 78.326 157.169 77.8762C163.189 73.3343 163.578 67.1197 163.602 66.9537C163.605 65.7676 164.405 64.8678 165.603 64.7043C166.119 64.6105 166.612 64.6828 167.246 64.9451C167.715 65.1833 169.639 65.8043 170.58 65.0946C172.109 63.7931 172.819 61.1851 172.609 60.3069C172.304 60.0927 171.342 59.7823 170.966 60.0661C170.049 60.6098 168.899 60.4413 168.149 59.8228C167.399 59.2044 167.049 58.1361 167.38 56.9982C168.49 53.9403 169.081 52.1623 169.414 49.8382C170.844 39.8776 165.108 31.918 155.578 30.5216C154.263 30.329 153.28 28.9984 153.471 27.6703C153.661 26.3422 154.978 25.3487 156.293 25.5413C168.617 27.347 176.179 37.7777 174.344 50.5605C174.106 52.2206 173.727 53.6906 173.348 55.1606C174.967 55.5674 176.351 56.4481 176.865 57.5405C178.901 60.8898 176.94 66.3656 174.047 68.9926C172.33 70.436 170.286 70.6451 168.455 70.5463C167.697 73.4863 165.88 77.9661 161.341 81.5385L161.031 83.6966L173.225 91.077C178.995 94.126 182.269 100.538 181.316 107.179C180.632 108.434 179.339 109.262 178.025 109.069Z" fill="#1C1E1D"/>
<path d="M163.803 38.6763C158.38 37.8818 149.502 38.9539 144.08 38.1594C141.45 37.7742 139.028 39.4533 138.342 41.8953C135.81 51.3553 134.631 53.7251 134.631 53.7251L129.044 52.9065C129.068 52.7405 129.232 52.7646 129.256 52.5986C130.009 52.0308 131.607 51.4175 133.223 53.0104C133.019 49.7599 133.164 47.5777 133.546 44.9215C135.238 33.1348 144.714 26.7263 155.23 28.2672C165.747 29.8081 173.031 38.6724 171.339 50.4591C170.957 53.1153 170.343 55.0593 169.373 58.3072C171.371 57.244 172.919 58.1488 173.293 59.0511C173.269 59.2171 173.433 59.2412 173.41 59.4072L166.792 57.59C166.792 57.59 166.513 56.0237 166.769 46.0605C166.986 43.3803 166.432 39.0615 163.803 38.6763Z" fill="#1C1E1D"/>
<path d="M131.821 49.9234C131.821 49.9234 134.362 47.4142 136.57 47.2292C136.57 47.2292 163.099 49.4213 167.001 36.2634C171.375 22.1576 153.083 22.1895 147.963 22.7953C143.5 23.4973 128.887 27.1193 131.821 49.9234Z" fill="#1C1E1D"/>
<path d="M164.836 38.4888C164.836 38.4888 163.959 42.2588 169.597 52.0686L173.205 56.1567C173.205 56.1567 183.483 37.1529 167.273 29.6928L164.836 38.4888Z" fill="#1C1E1D"/>
<path d="M141.372 108.445L126.031 100.773L126.68 93.9185C130.724 91.46 132.87 87.0285 135.276 81.9569C136.445 84.3317 138.183 83.9084 139.831 81.7769C141.692 79.3375 142.873 75.7815 141.797 73.9288C140.861 72.2662 139.663 72.4297 138.651 73.6374C139.597 70.5554 139.697 67.5191 140.055 65.0289C141.747 53.2422 134.884 44.9481 124.532 43.4313C114.18 41.9145 105.268 47.8973 103.576 59.684C103.195 62.3401 102.602 65.3042 102.618 68.6967C102.504 67.1544 100.932 66.4156 99.5675 67.7412C97.9908 69.3747 97.9594 73.0991 99.0808 75.8059C100.062 78.3227 101.986 78.9436 103.563 77.3101C103.903 83.123 105.443 87.5863 108.136 91.0319L106.923 98.3122L90.1051 100.933C84.7491 102.013 81.2408 106.584 80.4544 112.062L147.496 121.885C148.118 116.383 146.204 111.017 141.372 108.445Z" fill="#FFD8BF"/>
<path opacity="0.35" d="M117.261 95.2505C121.862 95.9247 126.492 94.0605 126.492 94.0605C126.492 94.0605 123.426 100.222 116.689 99.2347C109.952 98.2476 108.253 91.388 108.253 91.388C108.253 91.388 112.66 94.5764 117.261 95.2505Z" fill="#1C1E1D"/>
<path d="M141.372 108.445L126.032 100.773C124.683 105.491 120.215 108.565 115.286 107.843C110.356 107.121 106.937 102.891 106.971 97.9803L90.1051 100.933C84.7491 102.013 81.2408 106.584 80.4544 112.062L147.496 121.885C148.118 116.383 146.204 111.017 141.372 108.445Z" fill="url(#paint2_linear_46_211)"/>
<path d="M147.231 124.898L79.8612 115.026C78.5466 114.834 77.5632 113.503 77.7539 112.175C78.6594 105.867 83.0847 100.752 89.5933 98.6546L105.478 93.185L107.135 98.0043L91.2503 103.474C87.5614 104.628 84.832 107.28 83.5338 110.479L145.481 119.556C145.372 115.642 143.477 112.482 140.522 110.863C140.357 110.839 140.357 110.839 140.217 110.649L126.196 100.797L129.14 96.652L142.996 106.479C148.438 109.48 151.383 115.844 150.382 122.817C149.839 124.263 148.546 125.09 147.231 124.898Z" fill="#1C1E1D"/>
<path d="M113.429 52.9916C118.687 53.762 127.231 55.014 132.49 55.7845C135.119 56.1697 135.935 58.6623 135.694 61.5086C135.51 70.9737 135.622 73.7021 135.622 73.7021C135.622 73.7021 138.229 73.0672 138.534 73.2813C139.644 70.2234 140.118 68.0894 140.5 65.4332C142.192 53.6465 134.908 44.7822 124.556 43.2654C114.204 41.7485 104.728 48.1571 103.036 59.9438C102.654 62.6 102.718 65.6604 102.758 68.8868C104.264 67.7513 105.387 69.272 105.387 69.272C105.387 69.272 106.45 66.5461 108.818 57.062C109.692 54.4781 110.8 52.6064 113.429 52.9916Z" fill="#1C1E1D"/>
<path d="M102.594 68.8627C102.594 68.8627 104.202 63.5047 105.05 62.273C105.05 62.273 130.922 64.3688 134.776 51.5429C138.962 37.5791 121.327 37.7072 116.207 38.313C111.744 39.0151 97.4764 46.0776 102.594 68.8627Z" fill="#1C1E1D"/>
<path d="M132.376 54.2422C132.376 54.2422 130.627 59.41 136.806 68.96L138.58 74.1354C138.58 74.1354 152.008 53.0508 134.929 45.8023L132.376 54.2422Z" fill="#1C1E1D"/>
<path d="M103.882 70.4074C104.699 70.5271 105.457 69.9552 105.576 69.13C105.694 68.3049 105.128 67.5389 104.311 67.4193C103.495 67.2996 102.736 67.8715 102.618 68.6967C102.5 69.5218 103.066 70.2878 103.882 70.4074Z" fill="#1C1E1D"/>
<path d="M137.074 75.2709C137.891 75.3906 138.649 74.8187 138.768 73.9935C138.886 73.1683 138.32 72.4024 137.503 72.2827C136.687 72.1631 135.928 72.735 135.81 73.5601C135.691 74.3853 136.258 75.1512 137.074 75.2709Z" fill="#1C1E1D"/>
<path d="M106.971 97.9803L107.161 96.6522L106.035 96.3176L105.868 97.4797L106.971 97.9803Z" fill="#1C1E1D"/>
<path d="M126.174 99.777L126.031 100.773L127.02 99.7314L126.174 99.777Z" fill="#1C1E1D"/>
</g>
<g clip-path="url(#clip2_46_211)">
<path opacity="0.35" d="M194.25 266.789C190.102 267.401 185.939 267.193 181.874 266.167L146.874 256.978L123.13 264.39C122.542 264.574 121.97 264.704 121.394 264.789C118.652 265.193 115.857 264.592 113.522 263.1C110.669 261.279 108.745 258.288 108.256 254.902L103.619 222.839C102.829 217.372 105.985 212.036 111.123 210.149L141.553 198.958C143.803 198.125 146.161 197.521 148.539 197.17C152.816 196.538 157.127 196.71 161.355 197.681L181.804 201.187L192.736 198.893C193.802 198.607 194.874 198.383 195.926 198.228C203.455 197.117 208.737 200.783 214.647 204.347L230.513 196.927C232.268 196.104 234.135 195.541 236.055 195.258C239.894 194.691 243.788 195.259 247.316 196.896C252.669 199.382 256.652 204.098 258.241 209.832C260.568 218.238 257.323 227.166 250.163 232.052L207.672 261.524C203.637 264.279 199.02 266.085 194.264 266.787L194.25 266.789Z" fill="black"/>
<path opacity="0.35" d="M178.671 212.62C172.949 213.465 167.441 209.864 165.857 204.245L165.27 202.165C164.796 202.051 164.324 201.932 163.855 201.803L162.356 203.354C160.601 205.177 158.248 206.394 155.741 206.764C152.679 207.216 149.623 206.434 147.142 204.566L139.865 199.088C137.383 197.219 135.771 194.489 135.324 191.395C134.958 188.866 135.434 186.245 136.666 184.011L137.707 182.12C137.452 181.703 137.202 181.281 136.96 180.855L134.814 180.882C137.978 173.174 124.044 176.65 123.208 170.873L121.896 161.796C121.061 156.019 124.621 150.452 130.179 148.851L132.246 148.257C132.357 147.778 132.477 147.302 132.604 146.829L131.068 145.314C129.258 143.533 128.06 141.159 127.694 138.63C127.247 135.537 128.018 132.454 129.867 129.947L135.293 122.59C137.144 120.082 139.847 118.455 142.906 118.004C145.406 117.635 148.001 118.116 150.21 119.356L152.087 120.411C152.5 120.152 152.919 119.899 153.341 119.655L153.314 117.488C153.241 111.65 157.5 106.608 163.221 105.763L172.204 104.437C177.925 103.593 178.298 114.914 185.017 112.813L185.605 114.893C186.078 115.007 186.551 115.126 187.02 115.255L188.519 113.704C190.296 111.87 192.641 110.663 195.137 110.295C198.198 109.843 201.25 110.624 203.731 112.49L211.012 117.969C213.493 119.839 215.105 122.568 215.553 125.662C215.918 128.192 215.442 130.813 214.211 133.046L213.17 134.938C213.425 135.355 213.675 135.776 213.917 136.203L216.063 136.175C221.845 136.104 226.833 140.407 227.668 146.184L228.981 155.262C229.816 161.038 226.256 166.605 220.698 168.206L218.63 168.801C218.519 169.279 218.399 169.755 218.273 170.229L219.808 171.743C221.618 173.525 222.817 175.898 223.183 178.428C223.63 181.52 222.858 184.603 221.009 187.11L215.583 194.468C213.74 196.972 211.035 198.603 207.971 199.055C205.469 199.425 202.874 198.942 200.663 197.698L198.789 196.646C198.377 196.906 197.958 197.158 197.536 197.403L197.563 199.569C197.636 205.407 193.377 210.45 187.656 211.294L178.671 212.62Z" fill="black"/>
<path d="M254.204 206.792C252.616 201.057 248.634 196.341 243.279 193.855C239.75 192.216 235.856 191.65 232.018 192.217C230.098 192.5 228.229 193.063 226.475 193.886L210.61 201.306C208.442 198.913 205.74 197.158 202.682 196.094C203.098 196.08 203.515 196.076 203.929 196.015C206.994 195.563 209.698 193.93 211.542 191.427L216.968 184.07C218.817 181.563 219.589 178.481 219.141 175.387C218.776 172.858 217.577 170.484 215.767 168.703L214.232 167.188C214.358 166.715 214.478 166.239 214.589 165.76L216.657 165.166C222.214 163.563 225.775 157.998 224.94 152.221L223.627 143.142C222.791 137.365 217.804 133.06 212.021 133.133L209.875 133.161C209.633 132.734 209.383 132.313 209.129 131.895L210.17 130.004C211.401 127.77 211.877 125.149 211.511 122.62C211.064 119.528 209.452 116.796 206.97 114.927L199.69 109.448C197.208 107.58 194.157 106.801 191.096 107.253C188.599 107.621 186.255 108.828 184.478 110.662L182.979 112.213C182.51 112.084 182.037 111.963 181.563 111.851L180.976 109.77C179.393 104.151 173.884 100.551 168.163 101.395L159.18 102.721C153.458 103.566 149.199 108.608 149.273 114.446L149.3 116.613C148.878 116.859 148.458 117.11 148.046 117.369L146.168 116.314C143.961 115.074 141.367 114.592 138.865 114.962C135.806 115.413 133.103 117.042 131.252 119.547L125.826 126.905C123.977 129.412 123.205 132.493 123.653 135.587C124.018 138.117 125.217 140.491 127.027 142.272L128.562 143.787C128.436 144.26 128.316 144.736 128.205 145.215L126.137 145.809C120.579 147.412 117.019 152.977 117.854 158.754L119.167 167.831C120.002 173.608 124.99 177.913 130.772 177.84L132.919 177.813C133.16 178.239 133.41 178.66 133.665 179.078L132.624 180.969C131.393 183.203 130.917 185.824 131.282 188.353C131.73 191.446 133.342 194.177 135.824 196.046L136.262 196.376L107.082 207.107C101.943 208.994 98.7875 214.33 99.578 219.797L104.214 251.86C104.704 255.246 106.628 258.237 109.482 260.057C111.816 261.55 114.613 262.151 117.353 261.746C117.927 261.662 118.501 261.531 119.089 261.35L142.833 253.938L177.833 263.126C181.898 264.153 186.061 264.361 190.209 263.748L190.223 263.746C194.979 263.044 199.596 261.239 203.631 258.484L246.124 229.012C253.283 224.125 256.53 215.195 254.204 206.792Z" fill="white"/>
<path d="M165.206 228.971L182.949 231.051C184.389 231.221 185.845 230.942 187.125 230.253L200.24 223.189C203.12 221.638 204.725 218.428 204.253 215.165C203.578 210.496 198.991 207.492 194.496 208.776L180.961 211.238L155.032 206.116C150.534 205.024 145.818 205.3 141.475 206.91L111.038 218.105L115.675 250.168L139.586 242.715C141.476 242.107 143.494 242.042 145.419 242.525L180.637 251.773C186.281 253.194 192.256 252.126 197.076 248.835L239.644 219.312C242.657 217.254 244.03 213.48 243.05 209.941C241.644 204.865 236.067 202.277 231.34 204.504L204.524 217.042" fill="#FFB789"/>
<path fill-rule="evenodd" clip-rule="evenodd" d="M155.568 203.47L177.931 207.306L190.777 204.611C193.291 203.905 196.239 203.601 199.018 204.355C201.948 205.151 204.544 207.097 206.047 210.54C206.403 211.356 206.655 212.178 206.818 212.995L230.21 202.057C230.211 202.057 230.213 202.056 230.214 202.055C236.435 199.126 243.774 202.533 245.624 209.213C246.913 213.869 245.11 218.833 241.149 221.544C241.146 221.546 241.143 221.548 241.141 221.55L198.573 251.073C193.125 254.793 186.37 255.999 179.991 254.393L179.965 254.386L144.761 245.143C143.319 244.783 141.81 244.833 140.398 245.288L140.374 245.295L116.463 252.749C115.717 252.981 114.908 252.873 114.248 252.452C113.588 252.031 113.143 251.339 113.03 250.559L108.394 218.495C108.211 217.228 108.933 216.006 110.124 215.568L140.556 204.377C140.557 204.377 140.558 204.376 140.56 204.376C145.368 202.593 150.586 202.28 155.568 203.47ZM204.619 219.742C204.333 219.786 204.035 219.783 203.734 219.727C202.282 219.457 201.321 218.049 201.589 216.583C201.814 215.345 201.721 214.015 201.156 212.719C200.345 210.862 199.094 209.968 197.63 209.571C196.05 209.142 194.099 209.273 192.139 209.834C192.078 209.852 192.016 209.867 191.954 209.88L178.524 212.697C178.198 212.765 177.862 212.772 177.534 212.715L154.586 208.779C154.527 208.769 154.468 208.757 154.409 208.743C150.424 207.775 146.246 208.02 142.398 209.447L142.391 209.449L113.998 219.891L117.868 246.659L138.787 240.138C141.145 239.382 143.663 239.302 146.064 239.905L146.091 239.912L181.296 249.156C186.197 250.386 191.385 249.459 195.572 246.603C195.575 246.602 195.577 246.6 195.58 246.598L238.131 217.086L238.147 217.075C240.208 215.668 241.146 213.088 240.476 210.668C239.515 207.198 235.702 205.428 232.47 206.952L232.463 206.955L205.647 219.493C205.314 219.649 204.965 219.729 204.619 219.742Z" fill="#1C1E1D"/>
<path d="M193.909 212.287C193.139 212.401 192.467 212.762 191.948 213.271C192.025 214.135 192.214 215.219 192.649 216.47C193.037 217.59 193.666 218.61 194.301 219.452C194.512 219.459 194.726 219.454 194.943 219.422C196.893 219.135 198.243 217.303 197.959 215.333C197.674 213.363 195.859 211.999 193.909 212.287Z" fill="#FFE8D9"/>
<path opacity="0.35" d="M185.103 231.736C183.835 231.923 182.555 231.952 181.294 231.82L164.114 229.276C164.114 229.276 180.313 228.051 186.408 225.864L199.086 220.75C200.644 219.805 202.701 216.263 201.153 212.719C200.558 211.353 201.17 209.76 202.52 209.158C203.866 208.556 205.449 209.175 206.044 210.539C208.664 216.544 205.749 223.282 201.496 225.576C201.409 225.623 201.32 225.664 201.228 225.701L188.325 230.904C187.274 231.297 186.193 231.575 185.103 231.736Z" fill="#1C1E1D"/>
<path d="M213.473 153.91L212.161 144.834L202.473 144.956C200.953 140.361 198.488 136.266 195.334 132.863L200.045 124.309L192.764 118.828L185.999 125.836C181.871 123.755 177.28 122.542 172.487 122.385L169.831 112.971L160.848 114.297L160.969 124.085C156.42 125.621 152.367 128.111 148.999 131.297L140.532 126.538L135.107 133.893L142.043 140.729C139.983 144.899 138.783 149.537 138.628 154.379L129.31 157.063L130.622 166.139L140.31 166.017C141.83 170.612 144.295 174.707 147.449 178.109L142.738 186.664L150.018 192.145L156.784 185.137C160.912 187.218 165.503 188.431 170.296 188.588L172.952 198.002L181.935 196.676L181.814 186.888C186.362 185.352 190.416 182.862 193.784 179.676L202.251 184.435L207.676 177.08L200.739 170.244C202.8 166.074 204 161.436 204.155 156.593L213.473 153.91ZM173.582 170.617C165.311 171.838 157.626 166.053 156.418 157.697C155.21 149.341 160.935 141.577 169.206 140.357C177.477 139.136 185.162 144.92 186.37 153.277C187.579 161.633 181.853 169.397 173.582 170.617Z" fill="url(#paint3_linear_46_211)"/>
<path fill-rule="evenodd" clip-rule="evenodd" d="M158.175 114.33C158.159 112.977 159.136 111.821 160.462 111.625L169.445 110.299C170.77 110.103 172.034 110.929 172.402 112.231L174.539 119.806C178.34 120.144 182 121.098 185.407 122.582L190.851 116.943C191.787 115.974 193.287 115.854 194.361 116.663L201.642 122.143C202.716 122.952 203.032 124.439 202.381 125.621L198.59 132.505C200.972 135.378 202.923 138.65 204.332 142.232L212.128 142.134C213.467 142.117 214.612 143.105 214.806 144.444L216.118 153.52C216.312 154.859 215.494 156.136 214.206 156.507L206.708 158.666C206.373 162.507 205.428 166.205 203.96 169.646L209.542 175.147C210.501 176.092 210.62 177.608 209.819 178.693L204.395 186.049C203.594 187.134 202.123 187.453 200.952 186.795L194.138 182.965C191.295 185.372 188.057 187.343 184.511 188.766L184.608 196.642C184.624 197.996 183.647 199.152 182.321 199.348L173.338 200.674C172.013 200.87 170.749 200.044 170.381 198.742L168.244 191.167C164.443 190.828 160.783 189.875 157.376 188.391L151.932 194.03C150.996 194.999 149.496 195.119 148.422 194.31L141.141 188.83C140.067 188.021 139.751 186.534 140.402 185.351L144.193 178.468C141.811 175.595 139.86 172.323 138.451 168.741L130.655 168.839C129.316 168.856 128.171 167.868 127.977 166.529L126.665 157.453C126.471 156.114 127.289 154.837 128.577 154.466L136.075 152.307C136.41 148.467 137.353 144.768 138.822 141.327L133.241 135.826C132.282 134.881 132.164 133.365 132.964 132.28L138.388 124.924C139.189 123.839 140.661 123.52 141.831 124.178L148.645 128.008C151.489 125.601 154.726 123.63 158.273 122.207L158.175 114.33ZM167.902 115.985L163.55 116.627L163.641 124.052C163.656 125.225 162.918 126.274 161.816 126.646C157.64 128.056 153.919 130.34 150.827 133.267C149.979 134.07 148.715 134.227 147.7 133.657L141.277 130.047L138.648 133.611L143.91 138.796C144.741 139.615 144.954 140.884 144.435 141.934C142.543 145.765 141.442 150.021 141.299 154.467C141.261 155.64 140.478 156.655 139.36 156.976L132.293 159.012L132.928 163.409L140.277 163.317C141.439 163.302 142.477 164.047 142.845 165.161C144.241 169.38 146.502 173.139 149.399 176.263C150.194 177.12 150.349 178.397 149.784 179.422L146.211 185.911L149.739 188.567L154.871 183.251C155.682 182.411 156.938 182.197 157.978 182.721C161.77 184.632 165.982 185.745 170.382 185.889C171.544 185.927 172.548 186.719 172.866 187.848L174.881 194.988L179.233 194.346L179.142 186.921C179.127 185.748 179.865 184.699 180.967 184.327C185.143 182.917 188.864 180.633 191.956 177.705C192.804 176.903 194.068 176.746 195.083 177.316L201.506 180.926L204.135 177.362L198.873 172.177C198.042 171.358 197.829 170.09 198.347 169.039C200.238 165.207 201.342 160.951 201.484 156.506C201.522 155.333 202.305 154.318 203.423 153.997L210.49 151.961L209.855 147.564L202.506 147.656C201.344 147.671 200.306 146.925 199.938 145.812C198.542 141.593 196.281 137.834 193.384 134.71C192.59 133.853 192.434 132.576 192.999 131.551L196.572 125.062L193.044 122.406L187.912 127.722C187.101 128.562 185.845 128.776 184.805 128.252C181.013 126.341 176.801 125.228 172.401 125.084C171.239 125.046 170.235 124.254 169.917 123.125L167.902 115.985ZM153.773 158.086C152.352 148.254 159.088 139.119 168.82 137.683C178.551 136.247 187.593 143.053 189.015 152.884C190.436 162.716 183.7 171.851 173.968 173.287C164.237 174.724 155.195 167.918 153.773 158.086ZM169.593 143.027C162.782 144.032 158.068 150.425 159.063 157.305C160.058 164.186 166.385 168.949 173.196 167.944C180.006 166.938 184.72 160.546 183.725 153.665C182.73 146.785 176.403 142.022 169.593 143.027Z" fill="#1C1E1D"/>
</g>
<g clip-path="url(#clip3_46_211)">
<path opacity="0.35" d="M122.697 221.435C125.814 211.235 127.707 193.389 113.506 174.032C114.323 158.976 108.08 146.961 103.016 139.817C104.117 137.257 104.478 134.371 103.935 131.528L102.403 123.509C100.949 115.887 93.6223 110.87 86.0731 112.328L86.0615 112.33L41.3175 121.053C37.6594 121.765 34.4922 123.878 32.402 127.001C30.3115 130.123 29.5499 133.878 30.2552 137.574L31.5347 144.273C30.3319 145.72 29.3918 147.362 28.7672 149.138C28.3872 150.221 28.0431 151.589 27.9245 153.177C26.375 154.421 25.0542 155.973 24.0523 157.762C22.8967 159.831 22.2285 162.08 22.0568 164.359C20.3464 165.678 18.916 167.347 17.8438 169.303C16.6097 171.558 15.9564 174.051 15.8953 176.583C13.6331 178.663 12.0503 181.392 11.3994 184.491C10.9822 186.461 10.9629 188.478 11.3441 190.477C12.066 194.26 14.1901 197.633 17.2338 199.992C17.3465 203.829 18.507 207.55 20.6389 210.704C21.7999 212.42 23.2077 213.906 24.7809 215.095C25.5074 218.199 26.9999 221.097 29.1264 223.432C30.678 225.132 32.4677 226.453 34.4358 227.366C35.4539 229.892 38.4551 230.895 40.5438 232.682C42.2204 234.117 42.7339 236.428 44.779 237.091C45.4129 238.108 46.1626 239.065 47.0173 239.945C48.0191 240.977 49.127 241.867 50.3178 242.601L51.6987 249.827C53.153 257.449 60.4792 262.466 68.0299 261.008L115.671 251.718C119.329 251.006 122.496 248.893 124.587 245.77C126.677 242.648 127.439 238.893 126.733 235.197L125.201 227.178C124.796 225.062 123.93 223.109 122.697 221.435Z" fill="#1D1D1B"/>
<path d="M119.259 219.076C122.375 208.876 124.268 191.03 110.067 171.673C110.884 156.617 104.641 144.602 99.5769 137.458C100.678 134.898 101.039 132.012 100.497 129.169L98.9641 121.15C97.5098 113.528 90.1836 108.511 82.6343 109.969L82.6228 109.971L37.8787 118.693C34.2207 119.406 31.0535 121.519 28.9633 124.642C26.8728 127.764 26.1111 131.519 26.8165 135.215L28.096 141.914C26.8932 143.361 25.953 145.003 25.3285 146.779C24.9485 147.862 24.6044 149.23 24.4858 150.817C22.9362 152.062 21.6155 153.614 20.6136 155.403C19.458 157.472 18.7897 159.721 18.6181 162C16.9076 163.319 15.4773 164.988 14.4051 166.944C13.171 169.198 12.5176 171.692 12.4566 174.224C10.1944 176.304 8.61159 179.033 7.96066 182.132C7.54346 184.102 7.52419 186.119 7.90541 188.118C8.6273 191.901 10.7514 195.274 13.7951 197.633C13.9078 201.47 15.0683 205.191 17.2002 208.345C18.3612 210.061 19.769 211.547 21.3422 212.736C22.0687 215.84 23.5612 218.738 25.6877 221.073C27.2393 222.773 29.029 224.094 30.9971 225.007C32.0152 227.533 33.6092 229.773 35.6979 231.56C37.3745 232.996 39.2949 234.067 41.3403 234.732C41.9742 235.749 42.7239 236.706 43.5785 237.586C44.5804 238.618 45.6883 239.508 46.8791 240.242L48.26 247.468C49.7143 255.09 57.0405 260.107 64.5912 258.649L112.232 249.359C115.89 248.647 119.058 246.534 121.148 243.411C123.238 240.289 124 236.534 123.295 232.838L121.762 224.819C121.357 222.703 120.491 220.75 119.259 219.076Z" fill="white"/>
<path d="M107.219 223.121C107.219 223.121 121.636 200.652 100.193 174.59C103.369 152.044 86.18 136.495 86.18 136.495L87.6229 136.213C90.0138 135.747 91.5784 133.412 91.1168 130.996L89.5846 122.978C89.123 120.562 86.8115 118.982 84.4205 119.448L39.6885 128.171C37.2976 128.637 35.733 130.973 36.1946 133.388L37.7268 141.406C38.1884 143.822 40.4999 145.403 42.8909 144.936L40.0051 145.5C34.9547 146.484 31.4608 151.701 36.3217 157.559C29.8541 155.04 24.7521 163.595 30.9165 168.442C23.144 166.934 19.3469 174.478 24.0684 179.607C15.8533 179.697 15.2208 188.136 20.9669 190.796L24.271 192.42C21.1954 199.824 26.1957 206.41 30.6641 206.295C29.3348 211.091 32.892 217.958 39.3853 216.692C38.3349 222.946 43.6381 227.203 48.5491 225.489C47.8019 229.416 51.9794 233.797 56.7141 232.97L59.5999 232.407C57.2089 232.873 55.6444 235.208 56.106 237.624L57.6382 245.642C58.0998 248.058 60.4113 249.638 62.8023 249.172L110.42 239.887C112.811 239.42 114.376 237.085 113.914 234.67L112.382 226.652C111.922 224.234 109.609 222.655 107.219 223.121Z" fill="#FFC7A3"/>
<path d="M56.4321 239.798L57.5359 245.631C57.9932 248.048 60.3024 249.632 62.6942 249.17L111.772 239.691C114.163 239.229 115.731 236.896 115.274 234.479L114.17 228.646C113.713 226.23 111.404 224.646 109.012 225.107L59.9346 234.587C57.5428 235.049 55.9749 237.382 56.4321 239.798Z" fill="url(#paint4_linear_46_211)"/>
<path d="M36.1948 133.388L37.3087 139.22C37.7703 141.635 40.0818 143.216 42.4728 142.75L87.2047 134.027C89.5957 133.56 91.1602 131.225 90.6986 128.809L89.5847 122.978C89.1231 120.562 86.8116 118.982 84.4206 119.448L39.6887 128.171C37.2977 128.637 35.7332 130.973 36.1948 133.388Z" fill="url(#paint5_linear_46_211)"/>
<path d="M47.8118 138.672C49.4062 138.364 50.4516 136.809 50.1468 135.198C49.842 133.587 48.3024 132.531 46.708 132.839C45.1136 133.147 44.0681 134.702 44.373 136.313C44.6778 137.924 46.2174 138.98 47.8118 138.672Z" fill="#1C1E1D"/>
<path d="M67.5427 242.943C69.1371 242.635 70.1826 241.079 69.8777 239.469C69.5729 237.858 68.0333 236.802 66.4389 237.11C64.8445 237.417 63.7991 238.973 64.1039 240.584C64.4087 242.195 65.9483 243.251 67.5427 242.943Z" fill="#1C1E1D"/>
<path opacity="0.35" d="M59.2358 234.911L76.8752 211.896C77.8408 216.027 78.5786 218.747 82.4122 222.687C84.2696 224.596 86.5728 224.907 86.5728 224.907C74.1093 206.325 86.5209 187.344 87.112 186.601C87.6433 185.937 87.7522 185.018 87.3917 184.252C87.0316 183.48 86.2688 182.983 85.423 182.972C71.2612 182.798 67.8398 179.527 67.0592 177.592C66.343 175.807 66.786 175.049 66.9331 174.798C67.765 173.383 70.3825 172.785 71.3077 172.678L86.8011 170.417C88.4236 170.989 93.9986 173.085 98.9743 176.497C99.9804 177.189 101.353 176.924 102.036 175.906C102.72 174.888 102.458 173.504 101.451 172.813C95.0612 168.43 87.9795 166.112 87.6811 166.014C87.3627 165.912 87.0248 165.882 86.693 165.931L70.7601 168.258C70.2044 168.318 65.2628 168.945 63.1533 172.504C62.5341 173.548 61.9879 175.161 62.4013 177.346C62.5144 177.943 62.6998 178.583 62.976 179.268C64.8924 184.027 70.9315 186.662 81.3945 187.286C79.1685 191.139 76.1242 197.831 76.1441 205.574L55.7494 232.181C55.3463 232.708 55.212 233.358 55.3268 233.965C55.4242 234.48 55.7006 234.96 56.1416 235.306C57.1071 236.059 58.4906 235.883 59.2358 234.911Z" fill="#1C1E1D"/>
<path opacity="0.35" d="M39.4921 191.803C39.9364 190.617 40.0522 189.394 39.9371 188.209L40.2502 188.33C44.5147 189.976 49.3154 187.814 50.9532 183.51C51.811 181.25 51.624 178.871 50.6601 176.861C50.7255 176.834 50.7959 176.827 50.8609 176.799C52.9279 175.933 54.5297 174.301 55.3702 172.204L55.5469 171.761C56.4498 169.512 56.3023 167.096 55.3502 165.053C57.445 164.263 59.2249 162.639 60.1396 160.396C61.8429 156.224 59.8955 151.349 55.8041 149.535L41.684 143.278C40.5687 142.785 39.2697 143.297 38.7797 144.424C38.2912 145.551 38.7984 146.863 39.914 147.358L54.0341 153.615C55.9497 154.463 56.8606 156.747 56.0648 158.701C55.247 160.704 52.9683 161.669 50.9798 160.854L36.3427 154.855C35.2156 154.394 33.9293 154.942 33.4718 156.082C33.3988 156.266 33.3609 156.453 33.3365 156.64C33.33 156.693 33.3261 156.744 33.3243 156.797C33.3163 156.953 33.3231 157.107 33.3457 157.258C33.349 157.284 33.345 157.31 33.35 157.336C33.3516 157.345 33.3559 157.352 33.3576 157.36C33.3888 157.518 33.4388 157.671 33.5024 157.818C33.5234 157.865 33.5507 157.907 33.5745 157.953C33.6284 158.056 33.6861 158.156 33.7559 158.248C33.7904 158.296 33.8272 158.34 33.8654 158.384C33.9419 158.472 34.0243 158.551 34.115 158.628C34.1559 158.662 34.194 158.697 34.2372 158.728C34.3759 158.828 34.5227 158.916 34.6867 158.984L49.3223 164.984C51.3025 165.794 52.2635 168.089 51.4589 170.092L51.2823 170.534C50.8892 171.517 50.1404 172.28 49.1697 172.685C48.2036 173.091 47.1392 173.088 46.174 172.675L30.2238 165.881C29.1023 165.402 27.8087 165.934 27.3362 167.067C27.2583 167.256 27.2154 167.449 27.1907 167.642C27.1849 167.69 27.1802 167.737 27.1772 167.784C27.1652 167.974 27.1679 168.162 27.2024 168.345C27.2027 168.346 27.2015 168.348 27.2021 168.351L27.2024 168.352C27.2335 168.517 27.2858 168.675 27.352 168.827C27.3684 168.866 27.3917 168.902 27.4107 168.939C27.4657 169.048 27.5276 169.154 27.6003 169.253C27.6322 169.296 27.6639 169.336 27.6984 169.377C27.7755 169.467 27.8598 169.549 27.9525 169.628C27.99 169.66 28.0266 169.696 28.0667 169.726C28.2025 169.826 28.3481 169.916 28.511 169.986L44.7202 176.892C46.6621 177.722 47.593 179.929 46.8358 181.914C46.0684 183.93 43.8209 184.942 41.8246 184.172L34.9219 181.504C34.9219 181.504 34.9219 181.504 34.9204 181.505L33.2771 180.87L23.2878 177.008C22.8615 176.843 22.4147 176.822 22.002 176.918C21.3129 177.08 20.7121 177.574 20.4412 178.293C20.3723 178.474 20.3367 178.657 20.3161 178.841C20.3103 178.889 20.3087 178.936 20.3074 178.985C20.3013 179.134 20.3081 179.281 20.3314 179.428C20.3346 179.453 20.3307 179.479 20.3353 179.504C20.3376 179.516 20.3438 179.525 20.3457 179.535C20.3801 179.701 20.43 179.862 20.4996 180.017C20.5121 180.043 20.5301 180.067 20.5428 180.094C20.6049 180.217 20.678 180.334 20.7615 180.444C20.7952 180.487 20.8311 180.527 20.8674 180.568C20.9473 180.659 21.0348 180.742 21.1302 180.818C21.1708 180.851 21.2103 180.886 21.2536 180.917C21.3948 181.015 21.5463 181.104 21.714 181.168L33.3481 185.665C35.1468 186.362 36.0519 188.409 35.3722 190.226C34.6962 192.022 32.7589 192.94 30.9604 192.316L24.9785 190.244C23.8258 189.845 22.5726 190.465 22.178 191.63C22.0492 192.008 22.0289 192.399 22.0987 192.768C22.2424 193.528 22.773 194.189 23.5498 194.459L29.5314 196.53C33.5902 197.934 37.9658 195.859 39.4921 191.803Z" fill="#1C1E1D"/>
<path d="M53.3093 154.306C54.7573 155 55.3679 156.764 54.6726 158.246C53.9774 159.727 52.2386 160.366 50.7906 159.673C49.3427 158.979 51.8611 153.611 53.3093 154.306Z" fill="#FFE8D9"/>
<path d="M48.5403 165.809C49.9882 166.503 50.5988 168.267 49.9036 169.748C49.2083 171.229 47.4696 171.869 46.0216 171.175C44.5734 170.48 47.092 165.114 48.5403 165.809Z" fill="#FFE8D9"/>
<path d="M44.0208 177.703C45.4142 178.37 46.0003 180.068 45.3318 181.492C44.6632 182.917 42.9915 183.531 41.5978 182.863C40.2059 182.196 42.6288 177.036 44.0208 177.703Z" fill="#FFE8D9"/>
<path d="M32.9967 186.892C34.1418 187.44 34.6244 188.836 34.0741 190.008C33.5239 191.18 32.15 191.684 31.0034 191.136C29.8569 190.588 31.8516 186.343 32.9967 186.892Z" fill="#FFE8D9"/>
<path d="M15.1208 186.714C14.9322 185.725 14.932 184.696 15.1484 183.673C15.6245 181.406 17.2616 179.011 20.4413 177.945C19.481 175.503 19.5749 172.837 20.8325 170.539C22.0414 168.333 24.0678 166.866 26.5295 166.29C25.5136 163.769 25.8684 161.097 27.0073 159.059C28.2062 156.918 30.1426 155.528 32.331 155.058C31.4452 152.536 31.8262 150.477 32.2518 149.263C32.9823 147.186 34.5576 145.453 36.6143 144.359C36.1081 143.621 35.7415 142.766 35.5623 141.827L34.0301 133.809C33.3397 130.192 35.69 126.68 39.2701 125.983L84.0023 117.261C87.5824 116.564 91.0586 118.938 91.749 122.555L93.2812 130.573C93.8162 133.377 92.5256 136.116 90.2514 137.532C95.0543 142.98 104.582 156.244 102.502 173.924C119.378 195.046 113.755 214.153 110.595 221.328C112.571 222.163 114.112 223.949 114.548 226.227L116.08 234.245C116.77 237.862 114.42 241.374 110.84 242.072L63.2218 251.357C59.6417 252.054 56.1655 249.68 55.4751 246.063L53.9429 238.045C53.7544 237.056 53.7914 236.074 54.022 235.157C52.0827 234.824 50.2588 233.868 48.8221 232.387C47.6088 231.139 46.7962 229.643 46.4498 228.097C44.2927 228.132 42.1732 227.375 40.4482 225.898C38.4539 224.191 37.2772 221.744 37.08 219.041C34.7937 218.859 32.7268 217.836 31.0938 216.045C29.1695 213.933 28.1185 210.965 28.1903 208.118C26.3217 207.478 24.5812 206.1 23.2682 204.159C21.2131 201.119 20.6228 197.28 21.5686 193.564L20.0034 192.797C17.3899 191.589 15.6122 189.287 15.1208 186.714ZM26.234 179.183C26.3165 179.611 26.2721 180.064 26.0954 180.482C25.7522 181.294 24.9664 181.822 24.0927 181.83C21.5498 181.857 19.8186 182.893 19.4587 184.597C19.1829 185.938 19.8171 187.811 21.8862 188.767L25.2365 190.413C26.292 190.93 26.7564 192.191 26.3039 193.279C24.5677 197.458 26.1458 200.524 26.9071 201.645C27.9214 203.147 29.3744 204.097 30.6086 204.064C31.3068 204.046 31.9746 204.364 32.4033 204.922C32.8319 205.479 32.9747 206.21 32.7865 206.892C32.2316 208.893 32.8692 211.417 34.3334 213.027C35.1733 213.947 36.6576 214.951 38.9663 214.501C39.6762 214.362 40.4096 214.585 40.925 215.094C41.4438 215.606 41.6795 216.338 41.5572 217.06C41.1894 219.259 41.8239 221.236 43.2953 222.497C44.5742 223.594 46.269 223.924 47.8283 223.379C48.5723 223.121 49.3973 223.282 49.9924 223.802C50.5878 224.323 50.8627 225.127 50.712 225.905C50.507 226.972 50.9899 228.259 51.9629 229.265C53.143 230.481 54.7786 231.043 56.3355 230.771L59.1797 230.217C60.3746 229.985 61.531 230.774 61.7624 231.981C61.9923 233.189 61.2109 234.357 60.0163 234.591C58.8228 234.823 58.0388 235.993 58.2702 237.2L59.8024 245.218C60.032 246.424 61.1904 247.216 62.385 246.982L110.003 237.697C111.196 237.465 111.981 236.295 111.749 235.088L110.217 227.07C109.987 225.864 108.829 225.072 107.634 225.306C106.766 225.475 105.883 225.104 105.388 224.364C104.897 223.626 104.886 222.66 105.364 221.911C105.914 221.044 118.583 200.426 98.4963 176.011C98.0983 175.528 97.9206 174.898 98.0089 174.273C100.974 153.224 84.8691 138.296 84.7066 138.149C84.0836 137.585 83.833 136.711 84.0557 135.895C84.2804 135.083 84.9387 134.466 85.7612 134.305L87.2041 134.024C88.3976 133.792 89.1816 132.621 88.9502 131.414L87.418 123.396C87.1889 122.193 86.0309 121.403 84.8374 121.635L40.1054 130.358C38.912 130.59 38.128 131.76 38.3594 132.967L39.8916 140.985C40.1212 142.191 41.2796 142.983 42.4742 142.749C43.6691 142.517 44.8254 143.306 45.0568 144.513C45.2867 145.721 44.5053 146.889 43.3107 147.123L40.4249 147.686C38.4782 148.065 36.9413 149.242 36.4078 150.755C35.8515 152.338 36.4048 154.195 38.0124 156.127C38.6581 156.907 38.6985 158.029 38.1169 158.854C37.5326 159.68 36.4684 160.002 35.5301 159.638C33.2396 158.745 31.5765 159.951 30.8476 161.254C30.0368 162.702 29.9864 164.886 32.2718 166.685C33.0756 167.319 33.3464 168.426 32.9249 169.362C32.5052 170.298 31.5032 170.823 30.503 170.629C27.8563 170.115 25.6823 170.891 24.6915 172.699C23.7773 174.368 24.1571 176.431 25.6858 178.088C25.9705 178.399 26.1581 178.782 26.234 179.183Z" fill="#1C1E1D"/>
</g>
</g>
<defs>
<linearGradient id="paint0_linear_46_211" x1="56.5265" y1="78.8933" x2="124.253" y2="88.6156" gradientUnits="userSpaceOnUse">
<stop stop-color="#55D6FF"/>
<stop offset="0.515625" stop-color="#6D55FE"/>
<stop offset="1" stop-color="#E558A0"/>
</linearGradient>
<linearGradient id="paint1_linear_46_211" x1="112.066" y1="87.0311" x2="179.792" y2="96.7534" gradientUnits="userSpaceOnUse">
<stop stop-color="#55D6FF"/>
<stop offset="0.515625" stop-color="#6D55FE"/>
<stop offset="1" stop-color="#E558A0"/>
</linearGradient>
<linearGradient id="paint2_linear_46_211" x1="81.7174" y1="103.264" x2="148.787" y2="112.892" gradientUnits="userSpaceOnUse">
<stop stop-color="#55D6FF"/>
<stop offset="0.515625" stop-color="#6D55FE"/>
<stop offset="1" stop-color="#E558A0"/>
</linearGradient>
<linearGradient id="paint3_linear_46_211" x1="129.966" y1="161.601" x2="212.852" y2="149.615" gradientUnits="userSpaceOnUse">
<stop stop-color="#55D6FF"/>
<stop offset="0.515625" stop-color="#6D55FE"/>
<stop offset="1" stop-color="#E558A0"/>
</linearGradient>
<linearGradient id="paint4_linear_46_211" x1="56.984" y1="242.715" x2="114.764" y2="231.781" gradientUnits="userSpaceOnUse">
<stop stop-color="#55D6FF"/>
<stop offset="0.515625" stop-color="#6D55FE"/>
<stop offset="1" stop-color="#E558A0"/>
</linearGradient>
<linearGradient id="paint5_linear_46_211" x1="36.7377" y1="136.258" x2="90.1939" y2="126.142" gradientUnits="userSpaceOnUse">
<stop stop-color="#55D6FF"/>
<stop offset="0.515625" stop-color="#6D55FE"/>
<stop offset="1" stop-color="#E558A0"/>
</linearGradient>
<clipPath id="clip0_46_211">
<rect width="265" height="276" fill="white"/>
</clipPath>
<clipPath id="clip1_46_211">
<rect width="166.071" height="167.712" fill="white" transform="matrix(0.989435 0.144977 -0.142095 0.989853 50.7383 -26.8764)"/>
</clipPath>
<clipPath id="clip2_46_211">
<rect width="178.224" height="179.983" fill="white" transform="matrix(0.989283 -0.146014 0.143112 0.989706 72.3855 106.464)"/>
</clipPath>
<clipPath id="clip3_46_211">
<rect width="147.013" height="148.421" fill="white" transform="matrix(0.981853 -0.189643 0.185929 0.982563 -15.3475 127.083)"/>
</clipPath>
</defs>
</svg>
